<?xml version="1.0" encoding="utf-8"?>
<!-- Generator: Adobe Illustrator 19.2.0, SVG Export Plug-In . SVG Version: 6.00 Build 0)  -->
<svg version="1.1" id="Layer_1" xmlns="http://www.w3.org/2000/svg" xmlns:xlink="http://www.w3.org/1999/xlink" x="0px" y="0px"
	 viewBox="17.1 15.5 41.9 37.9" style="enable-background:new 17.1 15.5 41.9 37.9;" xml:space="preserve">
<style type="text/css">
	.st0{fill:#81B3D2;}
</style>
<g>
	<path class="st0" d="M56.7,40.8H19.5c-1.3,0-2.3,1.1-2.3,2.3v1.9c0,1.3,1.1,2.3,2.3,2.3H20V48c0,3,2.5,5.5,5.5,5.5h25.2
		c3,0,5.5-2.5,5.5-5.5v-0.6h0.5c1.3,0,2.3-1.1,2.3-2.3v-1.9C59,41.9,58,40.8,56.7,40.8z M54.5,48c0,2.1-1.7,3.8-3.8,3.8H25.5
		c-2.1,0-3.8-1.7-3.8-3.8v-0.6h32.9V48z M57.4,45.1c0,0.4-0.3,0.7-0.7,0.7H19.5c-0.4,0-0.7-0.3-0.7-0.7v-1.9c0-0.4,0.3-0.7,0.7-0.7
		h37.2c0.4,0,0.7,0.3,0.7,0.7V45.1z"/>
	<polygon class="st0" points="26,36.3 29,38.5 32,36.3 35.1,38.5 38.1,36.3 41.1,38.5 44.1,36.3 47.1,38.5 50.1,36.3 53.1,38.5 
		56.7,36 55.7,34.6 53.1,36.5 50.1,34.3 47.1,36.5 44.1,34.3 41.1,36.5 38.1,34.3 35.1,36.5 32,34.3 29,36.5 26,34.3 23,36.5 
		20.5,34.6 19.5,36 23,38.5 	"/>
	<path class="st0" d="M56.1,32.6c0-0.3,0-1.4,0-1.6c-0.4-8.6-8.3-15.5-18.1-15.5c-9.7,0-17.7,6.9-18.1,15.5c0,0.2,0,1.3,0,1.6H56.1z
		 M38.1,17.2c8.8,0,16,6.1,16.4,13.8H21.7C22.1,23.3,29.3,17.2,38.1,17.2z"/>
	<circle class="st0" cx="38.1" cy="23.8" r="1.1"/>
	<circle class="st0" cx="33.7" cy="21.1" r="1.1"/>
	<circle class="st0" cx="42.5" cy="21.1" r="1.1"/>
</g>
</svg>
