<?xml version="1.0" encoding="utf-8"?>
<!-- Generator: Adobe Illustrator 19.2.0, SVG Export Plug-In . SVG Version: 6.00 Build 0)  -->
<svg version="1.1" id="Layer_1" xmlns="http://www.w3.org/2000/svg" xmlns:xlink="http://www.w3.org/1999/xlink" x="0px" y="0px"
	 viewBox="16.8 16.3 41.1 39.8" style="enable-background:new 16.8 16.3 41.1 39.8;" xml:space="preserve">
<style type="text/css">
	.st0{fill:#81B3D2;}
</style>
<g>
	<path class="st0" d="M33,52.2h8.8V39.1H33V52.2L33,52.2z M40.2,50.6h-5.6v-9.9h5.6V50.6z"/>
	<path class="st0" d="M56.7,38l1.1-1.1l-5.4-5.5V16.5h-7.6v7.2l-7.5-7.5L16.8,36.8l1.1,1.1l4.3-4.3v20.8h-2.2v1.6h35.1v-1.6h-2.8
		V33.7L56.7,38z M46.5,18.2h4.4v11.6l-4.4-4.4V18.2z M50.8,54.5h-27V32l13.5-13.5L50.8,32V54.5z"/>
	<path class="st0" d="M33.2,31.2c0,2.4,1.9,4.3,4.3,4.3c2.4,0,4.3-1.9,4.3-4.3c0-2.4-1.9-4.3-4.3-4.3C35.1,27,33.2,28.9,33.2,31.2z
		 M37.4,28.5c1.5,0,2.7,1.2,2.7,2.7c0,1.5-1.2,2.7-2.7,2.7c-1.5,0-2.7-1.2-2.7-2.7C34.7,29.7,35.9,28.5,37.4,28.5z"/>
	<rect x="26.1" y="39.1" class="st0" width="1.6" height="2.2"/>
	<rect x="29.4" y="39.1" class="st0" width="1.6" height="2.2"/>
	<rect x="26.1" y="42.4" class="st0" width="1.6" height="2.2"/>
	<rect x="29.4" y="42.4" class="st0" width="1.6" height="2.2"/>
	<rect x="43.7" y="39.1" class="st0" width="1.6" height="2.2"/>
	<rect x="46.9" y="39.1" class="st0" width="1.6" height="2.2"/>
	<rect x="43.7" y="42.4" class="st0" width="1.6" height="2.2"/>
	<rect x="46.9" y="42.4" class="st0" width="1.6" height="2.2"/>
</g>
</svg>
