<?xml version="1.0" encoding="utf-8"?>
<!-- Generator: Adobe Illustrator 19.2.0, SVG Export Plug-In . SVG Version: 6.00 Build 0)  -->
<svg version="1.1" id="Layer_1" xmlns="http://www.w3.org/2000/svg" xmlns:xlink="http://www.w3.org/1999/xlink" x="0px" y="0px"
	 viewBox="92 70 275.9 210" style="enable-background:new 92 70 275.9 210;" xml:space="preserve">
<style type="text/css">
	.st0{fill:#766458;}
	.st1{fill:#81B3D3;}
	.st2{fill:#FFFFFF;}
</style>
<g>
	<path class="st0" d="M191.2,112l-0.1,0.1c-0.8,0.9-1.8,1.3-2.7,1.3l1.7-2.9c1.1-1.9,0.1-3.7-1.6-3.7c-1.4,0-2.5,0.6-3.5,2.3
		l-0.9,1.5l-0.7,1.3l-0.1,0.1c-1.3,1.5-2.6,2.7-3.4,2.7c-0.4,0-0.6-0.3-0.2-1l3.9-6.7h1.5l0.5-0.9h-1.5l1.7-2.9h-1.8l-1.7,2.9h-1.6
		l-0.5,0.9h1.6l-3.6,6.3c-0.8,1.3-0.2,2.6,1.2,2.6c1,0,2.2-0.8,3.3-1.9c0,2.3,3.2,2.7,5.1,0.3h0.4c1.1,0,2.8-0.7,3.7-1.7
		C191.8,112.4,191.4,112.1,191.2,112z M187.4,112.1L187.4,112.1c-0.7,0-1.1,0.5-1.1,1.1c0,0.2,0.1,0.4,0.2,0.6l0,0
		c-0.8,1.5-2.9,1.2-1.8-0.7l1.4-2.4l0.9-1.5c1.3-2.1,3-1.3,1.9,0.6L187.4,112.1z"/>
	<path class="st0" d="M216.1,112l-0.1,0.1c-1.3,1.5-3,2.7-4.2,2.7c-1.1,0-1.8-0.7-0.9-2.1l0.2-0.3c1.2,0.5,3.3,0.3,4.7-2.1l0.3-0.4
		c1-1.7,0-2.9-1.4-2.9c-1.5,0-2.6,0.8-3.4,2.1l-1.7,3l-0.1,0.1c-1.3,1.5-2.6,2.7-3.4,2.7c-0.4,0-0.6-0.3-0.2-1l2.6-4.5
		c0.8-1.4,0-2.3-1-2.3c-0.8,0-1.6,0.4-2.5,1.4l2.9-5h-1.8l-5,8.7l-0.1,0.1c-1.3,1.5-2.6,2.7-3.4,2.7c-0.4,0-0.6-0.3-0.2-1l3.9-6.7
		h1.5l0.5-0.9h-1.5l1.7-2.9h-1.8l-1.7,2.9h-1.6l-0.5,0.9h1.6l-3.6,6.3c-0.8,1.3-0.2,2.6,1.2,2.6c0.7,0,1.5-0.4,2.3-1l-0.5,0.8h1.8
		l2.7-4.7c2.8-3.5,4-3,3.2-1.7l-2.3,4.1c-0.8,1.3-0.2,2.6,1.2,2.6c1.1,0,2.3-0.8,3.4-1.9c0.1,1.1,1,1.9,2.4,1.9c2,0,4.1-1.6,5.5-3.3
		C216.6,112.4,216.3,112.1,216.1,112z M212.7,109.5c1-1.8,2.9-1.5,1.8,0.4l-0.3,0.4c-0.9,1.5-2,1.4-2.7,1.2L212.7,109.5z"/>
	<path class="st0" d="M281.6,112l-0.1,0.1c-0.7,0.8-1.5,1.5-2.2,2c0.6-1.7,0.4-4.3,1.6-6.6l-1.3-0.7c-0.7,1-2.4,3.4-4,5.3v0
		l-0.1,0.1c-1.3,1.5-2.6,2.7-3.4,2.7c-0.4,0-0.6-0.3-0.2-1l3.8-6.7h-1.8l-3.2,5.6c-1.4,1.2-2.4,1.9-2.8,1.8c-0.4-0.2,0-0.9,0.2-1.2
		l3.5-6.1h-1.8L267,112l-0.1,0.1c-0.8,0.9-1.8,1.3-2.7,1.3l1.7-2.9c1.1-1.9,0.1-3.7-1.6-3.7c-1.4,0-2.5,0.6-3.5,2.3l-0.9,1.5
		l-0.7,1.3l-0.1,0.1c-1.3,1.5-3,2.7-4.2,2.7c-1.1,0-1.8-0.7-0.9-2.1l0.2-0.3c1.2,0.5,3.3,0.3,4.7-2.1l0.3-0.4c1-1.7,0-2.9-1.4-2.9
		c-1.5,0-2.6,0.8-3.4,2.1l-1.7,3l-0.1,0.1c-1.5,1.7-2.8,2.8-4.2,3.4l4-6.9h-1.1c0-0.7-0.8-1.7-1.9-1.7c-1,0-2.3,0.8-3.1,2.1l-1.7,3
		c0,0,0,0,0,0l-0.1,0.1c-1.3,1.5-2.6,2.7-3.4,2.7c-0.4,0-0.6-0.3-0.2-1l1.8-3.1c0.6-1.1,0.3-1.7-0.3-2.4l-1-1.2
		c-0.3-0.3-0.3-0.7,0.1-1l-0.9-1c-1,0.9-1.1,1.9-0.5,2.8l0.2,0.2c-0.8,1.1-1.9,2.6-3,4l0,0l-0.1,0.1c-0.8,0.9-1.8,1.3-2.7,1.3
		l1.7-2.9c1.1-1.9,0.1-3.7-1.6-3.7c-1.4,0-2.5,0.6-3.5,2.3l-0.9,1.5l-0.7,1.3l-0.1,0.1c-1.5,1.7-2.8,2.8-4.2,3.4l4-6.9H228
		c0-0.7-0.8-1.7-1.9-1.7c-1,0-2.3,0.8-3.1,2.1l-2.5,4.4c-0.8,1.3-0.2,2.6,1.2,2.6c0.5,0,1.1-0.2,1.7-0.6l-0.5,0.8
		c-2.4,0.7-3.9,1.7-3.9,3.1c0,1.7,2.6,2.1,3.9-0.1l1.4-2.4c1.4-0.4,2.8-1.3,4.3-2.7c0,2.3,3.2,2.8,5.1,0.3h0.4
		c1.1,0,2.8-0.7,3.7-1.7l0,0c0.9-1,1.5-1.9,3-3.9l0.2,0.3c0.2,0.3,0.3,0.7,0.1,1l-1.9,3.3c-0.8,1.3-0.2,2.6,1.2,2.6
		c0.9,0,1.9-0.6,2.9-1.5c0,0.8,0.5,1.5,1.6,1.5c0.5,0,1.1-0.2,1.7-0.6l-0.5,0.8c-2.4,0.7-3.9,1.7-3.9,3.1c0,1.7,2.6,2.1,3.9-0.1
		l1.4-2.4c1.5-0.5,2.9-1.3,4.4-2.8c0.1,1.1,1,1.9,2.4,1.9c1.5,0,2.9-0.8,4.2-1.9c-0.1,2.4,3.2,2.8,5.1,0.3h0.4c0.6,0,1.3-0.2,2-0.5
		c-0.5,1.2,0,2.1,1,2.1c1,0,2.1-0.9,3-1.7c-0.2,1,0.4,1.7,1.5,1.7c1.5,0,3.2-1.6,4.7-3.3l0,0c1-1.2,1.9-2.4,2.6-3.3
		c-0.7,1.9-0.3,5.2-2,5.2c-0.6,0-0.8-0.7-0.8-0.7l-1.1,0.6c0,0,0.3,1.5,2,1.5c0.2,0,0.3,0,0.5,0c0,0,0,0,0.1,0
		c1.8-0.2,3.6-1.7,5-3.3C282.1,112.4,281.8,112.1,281.6,112z M255.8,109.5c1-1.8,2.9-1.5,1.8,0.4l-0.3,0.4c-0.9,1.5-2,1.4-2.7,1.2
		L255.8,109.5z M221.5,118.9c-0.4,0.7-1,0.6-1,0.1c0-0.5,0.4-1,1.8-1.5L221.5,118.9z M222.3,114.8c-0.4,0-0.6-0.3-0.2-1l2.5-4.4
		c1-1.7,2.9-1.2,2,0.4l-1.4,2.4C224.2,114,223.1,114.8,222.3,114.8z M233.4,112.1L233.4,112.1c-0.7,0-1.1,0.5-1.1,1.1
		c0,0.2,0.1,0.4,0.2,0.6l0,0c-0.8,1.5-2.9,1.2-1.8-0.7l1.4-2.4l0.9-1.5c1.3-2.1,3-1.3,1.9,0.6L233.4,112.1z M244.6,118.9
		c-0.4,0.7-1,0.6-1,0.1c0-0.5,0.4-1,1.8-1.5L244.6,118.9z M245.5,114.8c-0.4,0-0.6-0.3-0.2-1l2.5-4.4c1-1.7,2.9-1.2,2,0.4l-1.4,2.4
		C247.3,114,246.2,114.8,245.5,114.8z M263.2,112.1L263.2,112.1c-0.7,0-1.1,0.5-1.1,1.1c0,0.2,0.1,0.4,0.2,0.6l0,0
		c-0.8,1.5-2.9,1.2-1.8-0.7l1.4-2.4l0.9-1.5c1.3-2.1,3-1.3,1.9,0.6L263.2,112.1z"/>
</g>
<rect x="152.8" y="110.1" class="st0" width="17.4" height="1.2"/>
<rect x="289" y="110.1" class="st0" width="17.4" height="1.2"/>
<g>
	<path class="st1" d="M189.9,70h4.6l-0.7,27H185l-1.2-11.1L182.7,97h-8.8l-0.7-27h4.6l0.4,22.3h0.5l2.9-22.3h4.5l2.9,22.3h0.5
		L189.9,70z"/>
	<path class="st1" d="M209,92.3V97h-12.5V70H209v4.6h-8v6.5h6.3v4.6H201v6.5H209z"/>
	<path class="st1" d="M221.8,92.3V97h-11V70h4.6v22.3H221.8z"/>
	<path class="st1" d="M231.5,87l4.6-1.1v8.2c0,1.5-1.3,2.8-2.8,2.8h-6.9c-1.6,0-2.8-1.3-2.8-2.8V72.9c0-1.6,1.3-2.8,2.8-2.8h6.9
		c1.5,0,2.8,1.3,2.8,2.8v5.5l-4.6,1.1v-4.8h-3.3v17.7h3.3L231.5,87L231.5,87z"/>
	<path class="st1" d="M248.6,70c1.5,0,2.8,1.3,2.8,2.8v21.3c0,1.5-1.3,2.8-2.8,2.8h-6.9c-1.6,0-2.8-1.3-2.8-2.8V72.9
		c0-1.6,1.3-2.8,2.8-2.8H248.6z M246.8,74.6h-3.3v17.7h3.3V74.6z"/>
	<path class="st1" d="M266.5,70h4.5v27h-4.6V83.7l-1.8,6.9h-4.5l-1.8-6.9V97h-4.6V70h4.5l4.1,13L266.5,70z"/>
	<path class="st1" d="M285.8,92.3V97h-12.5V70h12.5v4.6h-8v6.5h6.3v4.6h-6.3v6.5H285.8z"/>
</g>
<g>
	<path class="st2" d="M118.6,164.6c-2.1-1.8-4.9-3-7.7-3c-2.1,0-5,1.3-5,3.8c0,2.6,3.2,3.6,5.2,4.3l3,0.9c6.3,1.8,11.1,5,11.1,12.3
		c0,4.5-1.1,9.1-4.6,12.1c-3.5,3-8.2,4.2-12.7,4.2c-5.7,0-11.2-1.9-15.8-5.1l5-9.4c2.9,2.6,6.4,4.6,10.4,4.6c2.7,0,5.7-1.4,5.7-4.5
		c0-3.3-4.6-4.4-7.1-5.1c-7.3-2.1-12.1-4-12.1-12.7c0-9.1,6.5-15.1,15.5-15.1c4.5,0,10.1,1.4,14.1,3.7L118.6,164.6z"/>
	<path class="st2" d="M147.1,162.9v7.5h13.2v9.9h-13.2v7.7h13.9v9.9h-25.5V153h25.5v9.9L147.1,162.9L147.1,162.9z"/>
	<path class="st2" d="M169.6,153h16.6c12.5,0,22.8,9.8,22.8,22.5c0,12.6-10.4,22.5-22.8,22.5h-16.6V153z M181.3,188h2.6
		c7,0,12.9-3.8,12.9-12.6c0-8-5.3-12.6-12.8-12.6h-2.7V188z"/>
	<path class="st2" d="M264.1,174.6c0,14.5-10.4,24.8-24.8,24.8c-14.4,0-24.8-10.2-24.8-24.8c0-13.6,11.9-23.1,24.8-23.1
		C252.2,151.5,264.1,161.1,264.1,174.6z M226.6,174.7c0,7.7,5.7,13.4,12.7,13.4c7,0,12.7-5.7,12.7-13.4c0-6.2-5.7-11.9-12.7-11.9
		C232.3,162.9,226.6,168.5,226.6,174.7z"/>
	<path class="st2" d="M270.3,153H282l21.4,27.5h0.1V153h11.7v44.9h-11.7l-21.4-27.5H282v27.5h-11.7V153z"/>
	<path class="st2" d="M336.4,190.1l-3.1,7.8h-12.4l17.3-44.9h12.7l16.9,44.9h-12.4l-2.9-7.8H336.4z M344.5,166.9h-0.1l-4.8,14.3h9.7
		L344.5,166.9z"/>
</g>
<g>
	<path class="st2" d="M156.8,242.7c4.6-1.6,4.9-7.3,0.4-7.3c-1.2,0-2.7,0.9-3.8,2.7l-6.1,10.6c-0.3,0.5-0.6,0.9-0.9,1.3
		c-1.6-2.2-1.1-5.4,1.1-6.8l-0.9-1.2c-4.8,3-3.4,11.8,4.6,11.8C158,253.7,161.2,245.6,156.8,242.7z M151.2,252
		c-1.4,0-2.4-0.3-3.3-0.8c0.4-0.5,0.8-1,1.1-1.6l3.8-6.6l0.6,0.1C158.8,244.1,156.7,252,151.2,252z M153.6,241.6l1.8-3.2
		c1.7-2.9,3.8-1.2,2.6,1C157.2,241.1,155.9,241.6,153.6,241.6z"/>
	<path class="st2" d="M176,250c-0.4,1.3,0.3,2.4,1.9,2.4c0.9,0,2.1-0.6,3.1-1.5c0.1,0.9,0.8,1.5,2,1.5c1.2,0,2.5-0.8,3.8-2
		c-0.3,1.2,0.3,2,1.4,2c1.2,0,2.6-1.1,3.7-2.2c-0.2,1.2,0.5,2.2,1.9,2.2c1.9,0,4-2,5.9-4.2c0,0,0-0.1-0.1-0.1c1.3-1.5,2.4-3,3.2-4.1
		c-0.9,2.4-0.4,6.6-2.6,6.6c-0.8,0-1.1-0.8-1.1-0.8l-1.4,0.7c0,0,0.4,1.8,2.5,1.8c0.2,0,0.4,0,0.6,0c0,0,0,0,0.1,0
		c1.7-0.2,3.3-1.2,4.8-2.5c0,1.5,1.2,2.6,3.1,2.6c2.6,0,5.1-2,7-4.2c-0.2-0.3-0.5-0.7-0.9-0.8l-0.2,0.2c-1.6,1.9-3.7,3.4-5.3,3.4
		c-1.4,0-2.2-0.9-1.2-2.7l0.2-0.4c1.5,0.6,4.2,0.3,5.9-2.6l0.3-0.6c1.2-2.1,0-3.7-1.8-3.7c-1.8,0-3.3,1-4.3,2.6l-2.2,3.8
		c0,0,0,0-0.1,0l-0.2,0.2c-0.8,1-1.8,1.9-2.7,2.5c0.7-2.2,0.6-5.5,2-8.4l-1.7-0.9c-0.9,1.3-3,4.3-5.1,6.7c0,0,0,0.1,0.1,0.1
		l-0.1,0.1c-1.6,1.9-3.2,3.4-4.2,3.4c-0.5,0-0.8-0.3-0.3-1.2l4.9-8.5H197l-4,7.1c-1.7,1.6-3.1,2.5-3.5,2.3c-0.6-0.2,0-1.1,0.3-1.6
		l4.4-7.7h-2.3l-3.6,6.3c-0.1,0-0.1-0.1-0.2-0.1l-0.2,0.2c-1.6,1.9-3.2,3.4-4.2,3.4c-0.5,0-0.8-0.3-0.3-1.2l3.7-6.4h-1.3
		c0.1-1-0.9-2.3-2.4-2.3c-1.2,0-2.9,1-3.9,2.6l-2.3,4c-0.1-0.1-0.2-0.2-0.3-0.2l-0.2,0.2c-1.6,1.9-3.7,3.4-5.3,3.4
		c-1.4,0-2.2-0.9-1.2-2.7l2.3-4.1c1.3-2.3,3.6-1.9,2.3,0.5l-0.3,0.6h1.9l0.3-0.6c1.2-2.1,0-3.7-1.8-3.7c-1.8,0-3.3,1-4.3,2.6
		l-2.3,3.9c-0.1,0-0.1-0.1-0.2-0.1l-0.2,0.2c-1.6,1.9-3.7,3.4-5.3,3.4c-1.4,0-2.2-0.9-1.2-2.7l0.2-0.4c1.5,0.6,4.2,0.3,5.9-2.6
		l0.3-0.6c1.2-2.1,0-3.7-1.8-3.7c-1.8,0-3.3,1-4.3,2.6l-2.4,4.1c-1.4,2.4-0.2,4.7,2.5,4.7c2,0,4-1.2,5.7-2.8
		c-0.1,1.6,1.1,2.8,3.1,2.8C172.6,252.5,174.5,251.4,176,250z M210.9,244.3c1.3-2.3,3.6-1.9,2.3,0.5l-0.3,0.6
		c-1.1,1.9-2.6,1.8-3.4,1.5L210.9,244.3z M178.4,249.8l3.2-5.5c1.2-2.1,3.7-1.6,2.5,0.5l-1.8,3.1c-1.4,2.2-2.7,3.2-3.7,3.2
		C178.1,251.1,177.8,250.7,178.4,249.8z M163.8,244.3c1.3-2.3,3.6-1.9,2.3,0.5l-0.3,0.6c-1.1,1.9-2.6,1.8-3.4,1.5L163.8,244.3z"/>
	<path class="st2" d="M241,252.5c2.6,0,5.1-2,7-4.2c-0.2-0.3-0.5-0.7-0.9-0.8l-0.2,0.2c-1.6,1.9-3.7,3.4-5.3,3.4
		c-1.4,0-2.2-0.9-1.2-2.7l0.2-0.4c1.5,0.6,4.2,0.3,5.9-2.6l0.3-0.6c1.2-2.1,0-3.7-1.8-3.7c-1.8,0-3.3,1-4.3,2.6l-2.2,3.8
		c0,0,0,0-0.1,0l-0.2,0.2c-1.6,1.9-3.2,3.4-4.2,3.4c-0.5,0-0.8-0.3-0.3-1.2l3.3-5.8c1-1.7,0-3-1.2-3c-1,0-2,0.5-3.2,1.7l3.6-6.3
		h-2.3l-6.4,11.1c-0.1-0.1-0.2-0.1-0.3-0.2l-0.2,0.2c-1.6,1.9-3.2,3.4-4.2,3.4c-0.5,0-0.8-0.3-0.3-1.2l4.9-8.5h1.9l0.7-1.1h-1.9
		l2.1-3.7h-2.3l-2.1,3.7H224l-0.7,1.1h2.1l-4.6,7.9c-1,1.7-0.3,3.2,1.6,3.2c1.1,0,2.4-0.7,3.6-1.8l-0.9,1.6h2.3l3.5-6
		c3.5-4.4,5.1-3.8,4.1-2.1l-3,5.1c-1,1.7-0.3,3.2,1.6,3.2c1.4,0,2.9-1.1,4.4-2.5C238,251.4,239.1,252.5,241,252.5z M242.8,244.3
		c1.3-2.3,3.6-1.9,2.3,0.5l-0.3,0.6c-1.1,1.9-2.6,1.8-3.4,1.5L242.8,244.3z"/>
	<path class="st2" d="M310,247.5l-0.2,0.2c-1.6,1.9-3.2,3.4-4.2,3.4c-0.5,0-0.8-0.3-0.3-1.2l7.7-13.3h-2.3l-3.3,5.8
		c-0.4-0.6-1.1-1.2-2.1-1.2c-1.2,0-2.9,1-3.9,2.6l-2.2,3.8c0,0-0.1-0.1-0.1-0.1l-0.2,0.2c-1.6,1.9-3.2,3.4-4.2,3.4
		c-0.5,0-0.8-0.3-0.3-1.2l3.3-5.8c1-1.7,0-3-1.2-3c-1,0-2,0.5-3.2,1.7l0.9-1.5h-2.3l-3.6,6.3c-0.1,0-0.1-0.1-0.2-0.1l-0.2,0.2
		c-1.6,1.9-3.2,3.4-4.2,3.4c-0.5,0-0.8-0.3-0.3-1.2l3.7-6.4h-1.3c0.1-1-0.9-2.3-2.4-2.3c-1.2,0-2.9,1-3.9,2.6l-2.2,3.8l-0.1,0.1
		c-1.6,1.9-3.2,3.4-4.2,3.4c-0.5,0-0.8-0.3-0.3-1.2l2.3-4c0.8-1.4,0.4-2.2-0.3-3.1l-1.3-1.5c-0.3-0.4-0.3-0.9,0.1-1.3l-1.2-1.3
		c-1.3,1.2-1.4,2.5-0.6,3.5l0.2,0.3c-1,1.4-2.4,3.3-3.9,5.1c0,0.1,0.1,0.1,0.2,0.2c-1.9,2.2-3.5,3.6-5.3,4.3l2.9-4.9h-2.3l-0.2,0.4
		c-1.2,2.1-2.6,3.6-4.4,3.6c-1.6,0-1.8-1.6-0.5-3.9l0.6-1.1c0.4,0.1,0.8,0.1,1.3,0.1c8.1,0,12-10.8,4.9-10.8c-1.2,0-2.7,0.9-3.8,2.7
		l-3.5,6.1c-1.3-0.7-2-2-2-3.2c0-1.1,0.5-2.1,1.5-2.9l-0.7-1.3c-1.6,1.2-2.3,2.7-2.3,4.2c0,1.8,1,3.6,2.9,4.5l-0.7,1.2
		c-1.6,2.8-1.3,5.8,1.9,5.8c1,0,1.8-0.3,2.5-0.7l-0.6,1c-3.1,0.9-5,2.2-5,3.9c0,2.2,3.3,2.6,5-0.2l1.8-3c2.4-0.7,4.7-2.4,7.2-5.3
		c0-0.1-0.1-0.1-0.1-0.2c1-1.2,1.9-2.3,3.6-4.7l0.3,0.4c0.3,0.4,0.4,0.8,0.1,1.3l-2.4,4.2c-1,1.7-0.3,3.2,1.6,3.2
		c1.1,0,2.4-0.7,3.6-1.8c0,1,0.7,1.8,2,1.8c0.9,0,2.1-0.6,3.1-1.5c0.1,0.9,0.8,1.5,2,1.5c1.1,0,2.3-0.7,3.4-1.7l-0.8,1.5h2.3
		l3.5-6.1c3.5-4.4,5-3.8,4-2.1l-3,5.1c-1,1.7-0.3,3.2,1.6,3.2c1.2,0,2.5-0.8,3.8-2c-0.1,1.1,0.6,2,2,2c0.9,0,2.1-0.6,3.2-1.5
		c0.1,0.9,0.8,1.5,2,1.5c1.9,0,4-2,5.9-4.2C310.7,248,310.3,247.6,310,247.5z M263.2,239c0.7-1.2,1.4-1.7,2.1-1.7
		c3.6,0,1.1,7.4-4.9,7.4h-0.5L263.2,239z M258.4,256.1c-0.5,0.9-1.2,0.7-1.2,0.1c0-0.6,0.5-1.3,2.3-1.9L258.4,256.1z M282.2,247.9
		c-1.4,2.2-2.7,3.2-3.7,3.2c-0.5,0-0.8-0.3-0.3-1.2l3.2-5.5c1.2-2.1,3.7-1.6,2.5,0.5L282.2,247.9z M304.2,247.7
		c-1.4,2.3-2.8,3.3-3.7,3.3c-0.5,0-0.8-0.3-0.3-1.2l3.2-5.5c1.2-2.1,3.7-1.6,2.5,0.5h0L304.2,247.7z"/>
	<path class="st2" d="M234,269.1l-0.2,0.2c-1.6,1.9-3.2,3.4-4.2,3.4c-0.5,0-0.8-0.3-0.3-1.2l3.3-5.8c1-1.7,0-3-1.2-3
		c-1,0-2,0.5-3.2,1.7l0.9-1.5h-2.3l-3.7,6.3c-0.1-0.1-0.2-0.1-0.3-0.2l-0.2,0.2c-1,1.1-2.3,1.7-3.4,1.7l2.1-3.7
		c1.4-2.4,0.1-4.6-2-4.6c-1.8,0-3.1,0.7-4.4,3l-1.1,1.9l-1,1.7c-0.1,0-0.1-0.1-0.2-0.1l-0.2,0.2c-1.9,2.2-3.5,3.6-5.3,4.3l6.2-10.7
		h-2.3l-4,7c-1.8,1.6-3.1,2.5-3.5,2.3c-0.6-0.2,0-1.1,0.3-1.6l4.4-7.7h-2.3l-3.6,6.3c-0.1,0-0.1-0.1-0.2-0.1l-0.2,0.2
		c-1.6,1.9-3.2,3.4-4.2,3.4c-0.5,0-0.8-0.3-0.3-1.2l3.3-5.8c1-1.7,0-3-1.2-3c-1,0-2,0.5-3.2,1.7l0.9-1.5h-2.3l-3.6,6.3
		c-0.1,0-0.1-0.1-0.2-0.1l-0.2,0.2c-1.6,1.9-3.2,3.4-4.2,3.4c-0.5,0-0.8-0.3-0.3-1.2l3.7-6.4h-1.3c0.1-1-0.9-2.3-2.4-2.3
		c-1.2,0-2.9,1-3.9,2.6l-2.4,4.1c-0.2-0.1-0.3-0.3-0.5-0.3l-0.2,0.2c-1.6,1.9-3.7,3.4-5.9,3.4c-1.6,0-2.5-1.6-1.1-3.9l0.6-1.1
		c0.4,0.1,0.8,0.1,1.3,0.1c2.4,0,5.2-1.2,7-4.4c0.6-1.1,0.9-2.2,0.9-3.1c0-2.1-1.3-3.4-3-3.4c-1.2,0-2.7,0.9-3.8,2.7l-3.5,6.1
		c-1.3-0.7-2-2-2-3.2c0-1.1,0.5-2.1,1.5-2.9l-0.7-1.3c-1.6,1.2-2.3,2.7-2.3,4.2c0,1.8,1,3.6,2.9,4.5l-0.7,1.2
		c-1.6,2.8-0.7,5.8,2.6,5.8c2.5,0,4.4-1.1,6-2.6c-0.5,1.4,0.2,2.6,1.8,2.6c0.9,0,2.1-0.6,3.2-1.5c0.1,0.9,0.8,1.5,2,1.5
		c1.1,0,2.3-0.7,3.4-1.7l-0.8,1.5h2.3l3.5-6.1c3.5-4.4,5-3.8,4-2.1l-3,5.1c-1,1.7-0.3,3.2,1.6,3.2c1.2,0,2.6-0.9,3.9-2.1
		c-0.3,1.3,0.3,2.1,1.4,2.1c1.1,0,2.3-0.9,3.4-1.8l-1.2,2.1c-3.1,0.9-5,2.2-5,3.9c0,2.2,3.3,2.6,5-0.2l1.8-3
		c1.9-0.6,3.8-1.8,5.7-3.7c-0.3,3.2,3.9,3.9,6.5,0.7h0.5c0.8,0,2-0.3,3-0.9l-1.5,2.6h2.3l3.5-6.1c3.5-4.4,5-3.8,4-2.1l-3,5.1
		c-1,1.7-0.3,3.2,1.6,3.2c1.9,0,4-2,5.9-4.2C234.7,269.6,234.3,269.2,234,269.1z M177.3,260.6c0.7-1.2,1.4-1.7,2.1-1.7
		c0.9,0,1.2,0.6,1.2,1.4c0,2.1-2.6,6-6.1,6h-0.5L177.3,260.6z M185.4,269.5c-1.4,2.2-2.7,3.2-3.7,3.2c-0.5,0-0.8-0.3-0.3-1.2
		l3.2-5.5c1.2-2.1,3.7-1.6,2.5,0.5L185.4,269.5z M202.7,277.7c-0.5,0.9-1.2,0.7-1.2,0.1c0-0.6,0.5-1.3,2.3-1.9L202.7,277.7z
		 M218,269.2h-0.1c-0.7,0-1.3,0.6-1.3,1.4c0,0.3,0.1,0.5,0.2,0.8l0,0c-1.1,1.8-3.7,1.5-2.3-0.9l1.7-3l1.1-1.9
		c1.6-2.7,3.8-1.6,2.4,0.7L218,269.2z"/>
	<path class="st2" d="M286.7,269.9c-0.1-0.3-0.5-0.7-0.9-0.8l-0.2,0.2c-0.8,1-1.8,1.9-2.7,2.5c0.7-2.2,0.6-5.5,2-8.4l-1.7-0.9
		c-0.9,1.3-3,4.3-5.1,6.7c0,0,0,0,0,0c0,0,0,0,0,0l-0.2,0.2c-1.6,1.9-3.2,3.4-4.2,3.4c-0.5,0-1-0.5-1-1.5v-0.9
		c1.6,0.2,3.3-0.9,4.4-2.7l0.6-1c2.1-3.6-1.3-4.8-3.7-2.7l3.2-5.6h-2.3l-6.5,11.3c-0.1-0.1-0.3-0.2-0.4-0.3l-0.2,0.2
		c-1.6,1.9-3.7,3.4-5.3,3.4c-1.4,0-2.2-0.9-1.2-2.7l2.3-4.1c1.3-2.3,3.6-1.9,2.3,0.5l-0.3,0.6h1.9l0.3-0.6c1.2-2.1,0-3.7-1.8-3.7
		c-1.8,0-3.3,1-4.3,2.6l-2.2,3.8c0,0-0.1-0.1-0.1-0.1l-0.2,0.2c-1.6,1.9-3.2,3.4-4.2,3.4c-0.5,0-0.8-0.3-0.3-1.2l4.9-8.5h-2.3
		l-4,7.1c-1.7,1.6-3.1,2.5-3.5,2.3c-0.6-0.2,0-1.1,0.3-1.6l4.4-7.7h-2.3l-4.4,7.6c-0.5,0.4-1,0.8-1.5,1.2c0.7-2.2,0.6-5.5,2-8.4
		l-1.7-0.9c-0.9,1.3-6.2,8.2-8.2,10.7c0.2,0.3,0.5,0.6,0.9,0.8c1.3-1.5,5.6-7.1,6.4-8.1c-0.9,2.4-0.4,6.6-2.6,6.6
		c-0.8,0-1.1-0.8-1.1-0.8l-1.4,0.7c0,0,0.4,1.8,2.5,1.8c0.2,0,0.4,0,0.6,0c0,0,0,0,0.1,0c1.2-0.2,2.3-0.7,3.4-1.4
		c0,0.9,0.6,1.5,1.5,1.5c1.2,0,2.6-1.1,3.7-2.2c-0.2,1.2,0.5,2.2,1.9,2.2c1.4,0,3-1.1,4.5-2.6c0,1.5,1.2,2.6,3.1,2.6
		c1.8,0,3.7-1,5.3-2.4l-1.3,2.2h2.3l2.6-4.5v1.8c0,1.9,0.4,2.9,2.2,2.9c1.9,0,4-2,5.9-4.2c0,0,0,0,0,0c0,0,0,0,0,0
		c1.3-1.5,2.4-3.1,3.2-4.2c-0.9,2.4-0.4,6.6-2.6,6.6c-0.8,0-1.1-0.8-1.1-0.8l-1.4,0.7c0,0,0.4,1.8,2.5,1.8c0.2,0,0.4,0,0.6,0
		c0,0,0,0,0.1,0C282.7,273.7,285,271.9,286.7,269.9z M271.6,268.1l0.7-1.1c2.6-3.7,4.4-2.6,3.6-1.3l-1.1,1.9
		C274.1,268.7,272.1,269.6,271.6,268.1z"/>
	<path class="st2" d="M286.6,271.4c-0.7,0-1.3,0.6-1.3,1.3c0,0.7,0.6,1.3,1.3,1.3c0.7,0,1.3-0.6,1.3-1.3
		C288,272,287.4,271.4,286.6,271.4z"/>
	<polygon class="st2" points="286.7,270.5 289,270.5 296.2,258.1 293.9,258.1 	"/>
</g>
<g>
	<path class="st2" d="M140.2,236.6c0,0.2,0,0.4-0.1,0.5c-0.1,0.2-0.2,0.3-0.3,0.5c-0.1,0.1-0.3,0.3-0.5,0.3
		c-0.2,0.1-0.4,0.1-0.7,0.1c-0.3,0-0.5-0.1-0.8-0.2c-0.3-0.1-0.5-0.2-0.6-0.4c-0.2-0.2-0.3-0.4-0.3-0.6c-0.1-0.2-0.1-0.5-0.1-0.8
		c0-0.5,0.1-1,0.3-1.4c0.2-0.4,0.4-0.8,0.8-1.2c0.1-0.1,0.3-0.3,0.5-0.4c0.2-0.1,0.4-0.2,0.5-0.3c0.2-0.1,0.3-0.2,0.4-0.2
		c0.1-0.1,0.2-0.1,0.2-0.1l0.8,1.2c-0.1,0.1-0.3,0.1-0.5,0.2c-0.2,0.1-0.4,0.2-0.5,0.3c-0.2,0.1-0.3,0.3-0.4,0.5
		c-0.1,0.2-0.2,0.4-0.2,0.6c0.4,0,0.7,0.1,1,0.3C140,235.8,140.2,236.1,140.2,236.6z M144.9,236.6c0,0.2,0,0.4-0.1,0.5
		c-0.1,0.2-0.2,0.3-0.3,0.5c-0.1,0.1-0.3,0.3-0.5,0.3c-0.2,0.1-0.4,0.1-0.7,0.1c-0.3,0-0.5-0.1-0.8-0.2c-0.3-0.1-0.5-0.2-0.6-0.4
		c-0.1-0.2-0.3-0.4-0.3-0.6c-0.1-0.2-0.1-0.5-0.1-0.8c0-0.5,0.1-1,0.3-1.4c0.2-0.4,0.4-0.8,0.8-1.2c0.1-0.1,0.3-0.3,0.5-0.4
		c0.2-0.1,0.4-0.2,0.5-0.3c0.2-0.1,0.3-0.2,0.4-0.2c0.1-0.1,0.2-0.1,0.2-0.1l0.8,1.2c-0.1,0.1-0.3,0.1-0.5,0.2
		c-0.2,0.1-0.4,0.2-0.5,0.3c-0.2,0.1-0.3,0.3-0.4,0.5c-0.1,0.2-0.2,0.4-0.2,0.6c0.4,0,0.7,0.1,1,0.3
		C144.8,235.8,144.9,236.1,144.9,236.6z"/>
</g>
<g>
	<path class="st2" d="M304,271.9c0-0.2,0-0.4,0.1-0.5c0.1-0.2,0.2-0.3,0.3-0.5c0.1-0.1,0.3-0.3,0.5-0.3c0.2-0.1,0.4-0.1,0.7-0.1
		c0.3,0,0.5,0.1,0.8,0.2c0.3,0.1,0.5,0.2,0.6,0.4c0.1,0.2,0.3,0.4,0.3,0.6c0.1,0.2,0.1,0.5,0.1,0.8c0,0.5-0.1,1-0.3,1.4
		c-0.2,0.4-0.4,0.8-0.8,1.2c-0.1,0.1-0.3,0.3-0.5,0.4c-0.2,0.1-0.4,0.2-0.5,0.3c-0.2,0.1-0.3,0.2-0.4,0.2c-0.1,0.1-0.2,0.1-0.2,0.1
		l-0.8-1.2c0.1-0.1,0.3-0.1,0.5-0.2c0.2-0.1,0.4-0.2,0.5-0.3c0.2-0.1,0.3-0.3,0.4-0.5c0.1-0.2,0.2-0.4,0.2-0.6c-0.4,0-0.7-0.1-1-0.3
		C304.2,272.7,304,272.4,304,271.9z M299.3,271.9c0-0.2,0-0.4,0.1-0.5c0.1-0.2,0.2-0.3,0.3-0.5c0.1-0.1,0.3-0.3,0.5-0.3
		c0.2-0.1,0.4-0.1,0.7-0.1c0.3,0,0.5,0.1,0.8,0.2c0.2,0.1,0.5,0.2,0.6,0.4c0.1,0.2,0.3,0.4,0.3,0.6c0.1,0.2,0.1,0.5,0.1,0.8
		c0,0.5-0.1,1-0.3,1.4c-0.2,0.4-0.4,0.8-0.8,1.2c-0.1,0.1-0.3,0.3-0.5,0.4c-0.2,0.1-0.4,0.2-0.5,0.3c-0.2,0.1-0.3,0.2-0.4,0.2
		c-0.1,0.1-0.2,0.1-0.2,0.1l-0.8-1.2c0.1-0.1,0.3-0.1,0.5-0.2c0.2-0.1,0.4-0.2,0.5-0.3c0.2-0.1,0.3-0.3,0.4-0.5
		c0.1-0.2,0.2-0.4,0.2-0.6c-0.4,0-0.7-0.1-1-0.3C299.4,272.7,299.3,272.4,299.3,271.9z"/>
</g>
</svg>
