<?xml version="1.0" encoding="utf-8"?><svg width="2948" height="350.1" viewBox="0 0 2948 350.1" xmlns="http://www.w3.org/2000/svg" xmlns:xlink="http://www.w3.org/1999/xlink"><svg id="bars" viewBox="0 0 22.9 22" width="22.9" height="22"><style>.aast0{fill:#81b3d2}</style><path class="aast0" d="M0 0h22.9v4H0zM0 9h22.9v4H0zM0 18h22.9v4H0z"/></svg><svg id="burger" viewBox="17.1 15.5 41.9 37.9" width="41.9" height="37.9" x="23"><style>.abst0{fill:#81b3d2}</style><path class="abst0" d="M56.7 40.8H19.5c-1.3 0-2.3 1.1-2.3 2.3V45c0 1.3 1.1 2.3 2.3 2.3h.5v.7c0 3 2.5 5.5 5.5 5.5h25.2c3 0 5.5-2.5 5.5-5.5v-.6h.5c1.3 0 2.3-1.1 2.3-2.3v-1.9c0-1.3-1-2.4-2.3-2.4zM54.5 48c0 2.1-1.7 3.8-3.8 3.8H25.5c-2.1 0-3.8-1.7-3.8-3.8v-.6h32.9v.6zm2.9-2.9c0 .4-.3.7-.7.7H19.5c-.4 0-.7-.3-.7-.7v-1.9c0-.4.3-.7.7-.7h37.2c.4 0 .7.3.7.7v1.9zM26 36.3l3 2.2 3-2.2 3.1 2.2 3-2.2 3 2.2 3-2.2 3 2.2 3-2.2 3 2.2 3.6-2.5-1-1.4-2.6 1.9-3-2.2-3 2.2-3-2.2-3 2.2-3-2.2-3 2.2-3.1-2.2-3 2.2-3-2.2-3 2.2-2.5-1.9-1 1.4 3.5 2.5zM56.1 32.6V31c-.4-8.6-8.3-15.5-18.1-15.5-9.7 0-17.7 6.9-18.1 15.5v1.6h36.2zm-18-15.4c8.8 0 16 6.1 16.4 13.8H21.7c.4-7.7 7.6-13.8 16.4-13.8z"/><circle class="abst0" cx="38.1" cy="23.8" r="1.1"/><circle class="abst0" cx="33.7" cy="21.1" r="1.1"/><circle class="abst0" cx="42.5" cy="21.1" r="1.1"/></svg><svg id="burger2x" viewBox="0 0 76.2 69" width="76.2" height="69" x="65"><style>.acst0{fill:#81b3d2}</style><path class="acst0" d="M71.9 46H4.3C1.9 46 0 48 0 50.3v3.5C0 56.1 1.9 58 4.3 58h1v1c0 5.5 4.5 9.9 9.9 9.9H61c5.5 0 9.9-4.5 9.9-9.9v-1h1c2.3 0 4.3-1.9 4.3-4.3v-3.5c0-2.2-1.9-4.2-4.3-4.2zM68 59c0 3.8-3.1 6.9-6.9 6.9h-46c-3.8 0-6.9-3.1-6.9-6.9v-1H68v1zm5.2-5.3c0 .7-.6 1.3-1.3 1.3H4.3c-.7 0-1.3-.6-1.3-1.3v-3.5c0-.6.6-1.2 1.3-1.2H72c.7 0 1.3.6 1.3 1.3v3.4zM16.2 37.9l5.4 4 5.5-4 5.5 4 5.5-4 5.4 4 5.5-4 5.5 4 5.5-4 5.5 4 6.3-4.7-1.7-2.4-4.6 3.3-5.5-4-5.5 4-5.5-4-5.5 4-5.4-4-5.5 4-5.5-4-5.5 4-5.4-4-5.5 4-4.6-3.3-1.8 2.4 6.4 4.7zM70.9 31.1c0-.6.1-2.6 0-3C70.2 12.5 55.8 0 38.1 0 20.4 0 5.9 12.5 5.2 28.1v3h65.7zM38.1 3c16 0 29.2 11.2 29.8 25.1H8.2C8.9 14.2 22.1 3 38.1 3z"/><circle class="acst0" cx="38.1" cy="15" r="2"/><circle class="acst0" cx="30.1" cy="10.1" r="2"/><circle class="acst0" cx="46.1" cy="10.1" r="2"/></svg><svg id="close" viewBox="0 0 22.2 22.2" width="22.2" height="22.2" x="142"><style>.adst0{fill:#fff}</style><path class="adst0" d="M22.2 2.8L19.4 0l-8.3 8.3L2.8 0 0 2.8l8.3 8.3L0 19.4l2.8 2.8 8.3-8.3 8.3 8.3 2.8-2.8-8.3-8.3z"/></svg><svg id="facebook" viewBox="0 0 8.7 18.9" width="8.7" height="18.9" x="165"><style>.aest0{fill:#fff}</style><path class="aest0" d="M6.3 3.4h2.4V0H5.8C2.7.2 1.5 2.4 1.9 6.1H0v3.5h2v9.3h3.8V9.6h2.9V6.1H5.8c0-1 0-2.4.5-2.7z"/></svg><svg id="fullscreen" viewBox="0 0 20 20" width="20" height="20" x="174"><style>.afst0{fill:#fff}</style><path class="afst0" d="M0 0v6h3V3h3V0H3zM3 14H0v6h6v-3H3zM17 0h-3v3h3v3h3V0zM17 17h-3v3h6v-6h-3z"/></svg><svg id="fullscreen_gray" viewBox="0 0 20 20" width="20" height="20" x="194"><style>.agst0{fill:#5c6870}</style><path class="agst0" d="M0 0v6h3V3h3V0H3zM3 14H0v6h6v-3H3zM17 0h-3v3h3v3h3V0zM17 17h-3v3h6v-6h-3z"/></svg><svg id="gift" viewBox="14.2 16.9 34.7 41.3" width="34.7" height="41.3" x="214"><style>.ahst0{fill:#81b3d2}</style><path class="ahst0" d="M47.3 29.1H33.8c7.5-3.7 8.1-6.1 7.8-7.4-.6-2.2-3.1-3.8-5.4-2.9-3 1.1-3.9 5.6-4.7 8.9-1-3.3-2-7.5-4.4-9.6-.7-.6-1.7-1.2-3.1-1.1-2.2.2-5.3 2.9-4 6 1.2 2.9 5.2 4.8 7.9 6.2H15.7c-.9 0-1.6.7-1.6 1.6V37c0 .9.7 1.6 1.6 1.6h.1v19.8h31.3v-20h.1c.9 0 1.6-.7 1.6-1.6v-6.2c0-.8-.7-1.5-1.5-1.5zm-10.2-9c1.1-.2 2.7.7 2.8 1.7.2 1.5-1.8 2.9-2.8 3.5-1.4.9-2.7 1.4-3.9 2.2.6-1.9 1.5-7 3.9-7.4zm-12.3 5.4c-1.2-.8-3.5-2.4-3.5-4.2.1-2 3.1-3.6 4.8-2.1 2.1 1.8 3.1 6 3.9 9-1.9-.8-3.5-1.5-5.2-2.7zM28 56.6H17.5V38.4H28v18.2zm0-19.9H15.8v-6H28v6zm5.5 19.9h-3.9V30.8h3.9v25.8zm12.1 0H35.1V38.4h10.5v18.2zm1.6-19.9H35.1v-6h12.1v6z"/></svg><svg id="gift2x" viewBox="0 0 63 75.1" width="63" height="75.1" x="249"><style>.aist0{fill:#81b3d2}</style><path class="aist0" d="M60.2 22.2H35.8C49.4 15.4 50.5 11.1 50 8.7c-1.1-3.9-5.6-6.9-9.8-5.3-5.5 2.1-7 10.3-8.5 16.2-1.9-6-3.7-13.6-8-17.5-1.2-1.1-3-2.2-5.7-2-4 .4-9.7 5.3-7.3 10.8 2.2 5.3 9.5 8.7 14.4 11.4H2.8c-1.6 0-2.8 1.3-2.8 2.8v11.2c0 1.6 1.3 2.8 2.8 2.8h.3v36h57v-36h.1c1.6 0 2.8-1.3 2.8-2.8V25.1c0-1.6-1.3-2.9-2.8-2.9zM41.8 5.9c2.1-.3 4.9 1.3 5.2 3.2.4 2.7-3.3 5.2-5 6.3-2.5 1.7-4.9 2.6-7.2 4 .8-3.7 2.5-12.9 7-13.5zm-22.6 9.8c-2.2-1.5-6.4-4.4-6.3-7.7.1-3.6 5.7-6.5 8.7-3.8 3.8 3.3 5.6 11 7 16.4-3.2-1.6-6.2-2.8-9.4-4.9zm5.9 56.4H6v-33h19.1v33zm0-36H3V25.2h22.1v10.9zm10 36H28V25.2h7.1v46.9zm22 0h-19v-33h19.1v33zm2.9-36H38.1V25.2H60v10.9z"/></svg><svg id="house" viewBox="16.8 16.3 41.1 39.8" width="41.1" height="39.8" x="312"><style>.ajst0{fill:#81b3d2}</style><path class="ajst0" d="M33 52.2h8.8V39.1H33v13.1zm7.2-1.6h-5.6v-9.9h5.6v9.9z"/><path class="ajst0" d="M56.7 38l1.1-1.1-5.4-5.5V16.5h-7.6v7.2l-7.5-7.5-20.5 20.6 1.1 1.1 4.3-4.3v20.8H20V56h35.1v-1.6h-2.8V33.7l4.4 4.3zM46.5 18.2h4.4v11.6l-4.4-4.4v-7.2zm4.3 36.3h-27V32l13.5-13.5L50.8 32v22.5z"/><path class="ajst0" d="M33.2 31.2c0 2.4 1.9 4.3 4.3 4.3s4.3-1.9 4.3-4.3-1.9-4.3-4.3-4.3c-2.4.1-4.3 2-4.3 4.3zm4.2-2.7c1.5 0 2.7 1.2 2.7 2.7 0 1.5-1.2 2.7-2.7 2.7-1.5 0-2.7-1.2-2.7-2.7 0-1.5 1.2-2.7 2.7-2.7zM26.1 39.1h1.6v2.2h-1.6zM29.4 39.1H31v2.2h-1.6zM26.1 42.4h1.6v2.2h-1.6zM29.4 42.4H31v2.2h-1.6zM43.7 39.1h1.6v2.2h-1.6zM46.9 39.1h1.6v2.2h-1.6zM43.7 42.4h1.6v2.2h-1.6zM46.9 42.4h1.6v2.2h-1.6z"/></svg><svg id="house2x" viewBox="0 0 74.7 72.3" width="74.7" height="72.3" x="354"><style>.akst0{fill:#81b3d2}</style><path class="akst0" d="M29.5 65.3h16V41.4h-16v23.9zm13.1-2.9H32.4V44.3h10.1v18.1z"/><path class="akst0" d="M72.6 39.4l2.1-2.1-9.9-9.9V.4H51v13.2L37.3 0 0 37.4l2.1 2.1 7.8-7.8v37.8H6v2.9h63.9v-2.9h-5.1V31.6l7.8 7.8zm-18.7-36h7.9v21.1l-7.9-7.9V3.4zm8 66h-49V28.7L37.3 4.2l24.5 24.5v40.7z"/><path class="akst0" d="M29.8 27.2c0 4.3 3.5 7.8 7.7 7.8 4.3 0 7.8-3.5 7.8-7.8s-3.5-7.7-7.8-7.7-7.7 3.4-7.7 7.7zm7.7-5c2.7 0 5 2.2 5 5 0 2.7-2.2 5-5 5-2.7 0-5-2.2-5-5 0-2.7 2.3-5 5-5zM16.9 41.4h3v3.9h-3zM22.8 41.4h3v3.9h-3zM16.9 47.4h3v3.9h-3zM22.8 47.4h3v3.9h-3zM48.8 41.4h3v3.9h-3zM54.8 41.4h3v3.9h-3zM48.8 47.4h3v3.9h-3zM54.8 47.4h3v3.9h-3z"/></svg><svg viewBox="0 0 26.9 34.1" width="26.9" height="34.1" id="htmlacademy" x="429"><path d="M13.6 0h-.1L0 1.4v24.7l13.5 8 13.4-8V1.4L13.6 0zM25 12.1L13.5 5.3v-.1h-.1l-.1-.1v.1L1.9 12.1v-9l11.5-1.2L25 3.1v9zM13.4 6.8l11.5 6.7-4.5 2.6-7.1-4.2v1.4l5.9 3.5-.9.5-5-3v1.4l3.8 2.3-.8.5-3-1.8v1.4l1.9 1.1-1.8 1.1L2 13.6l11.4-6.8zM1.9 15.1l11.4 6.8v1l-7.9-4.7v1.4l8 4.8v1.1l-8-4.7v1.4l8 4.8 8.1-4.9v-5.2l3.4-2v10l-11.5 6.9L1.9 25v-9.9z"/></svg><svg viewBox="0 0 26.9 34.1" opacity=".3" width="26.9" height="34.1" id="htmlacademy_active" x="456"><path d="M13.6 0h-.1L0 1.4v24.7l13.5 8 13.4-8V1.4L13.6 0zM25 12.1L13.5 5.3v-.1h-.1l-.1-.1v.1L1.9 12.1v-9l11.5-1.2L25 3.1v9zM13.4 6.8l11.5 6.7-4.5 2.6-7.1-4.2v1.4l5.9 3.5-.9.5-5-3v1.4l3.8 2.3-.8.5-3-1.8v1.4l1.9 1.1-1.8 1.1L2 13.6l11.4-6.8zM1.9 15.1l11.4 6.8v1l-7.9-4.7v1.4l8 4.8v1.1l-8-4.7v1.4l8 4.8 8.1-4.9v-5.2l3.4-2v10l-11.5 6.9L1.9 25v-9.9z"/></svg><svg viewBox="0 0 26.9 34.1" fill="#81b3d2" width="26.9" height="34.1" id="htmlacademy_hover" x="483"><path d="M13.6 0h-.1L0 1.4v24.7l13.5 8 13.4-8V1.4L13.6 0zM25 12.1L13.5 5.3v-.1h-.1l-.1-.1v.1L1.9 12.1v-9l11.5-1.2L25 3.1v9zM13.4 6.8l11.5 6.7-4.5 2.6-7.1-4.2v1.4l5.9 3.5-.9.5-5-3v1.4l3.8 2.3-.8.5-3-1.8v1.4l1.9 1.1-1.8 1.1L2 13.6l11.4-6.8zM1.9 15.1l11.4 6.8v1l-7.9-4.7v1.4l8 4.8v1.1l-8-4.7v1.4l8 4.8 8.1-4.9v-5.2l3.4-2v10l-11.5 6.9L1.9 25v-9.9z"/></svg><svg id="intro_bottom" viewBox="0.5 0 1200 57" width="1200" height="57" x="510"><style>.aost0{fill:#fff}</style><path class="aost0" d="M244.5 23.7L-9 0v57h609.5l-356-57zM956.4 23.7V0L600.5 57h609.4V0z"/></svg><svg id="intro_text" viewBox="0 0 459.8 350.1" width="459.8" height="350.1" x="1710"><style>.apst0{fill:#766458}.apst1{fill:#81b3d3}.apst2{fill:#fff}</style><path class="apst0" d="M165.4 70l-.2.2c-1.4 1.5-3 2.2-4.5 2.2l2.8-4.9c1.8-3.1.1-6.1-2.7-6.1-2.3 0-4.1.9-5.8 3.9l-1.5 2.6-1.2 2.1-.2.2c-2.2 2.5-4.3 4.5-5.6 4.5-.7 0-1-.5-.3-1.6l6.4-11.2h2.4l.9-1.4h-2.5l2.8-4.9h-3l-2.8 4.9h-2.7l-.9 1.4h2.7l-6 10.4c-1.3 2.2-.4 4.3 2 4.3 1.7 0 3.7-1.3 5.5-3.1 0 3.8 5.3 4.6 8.5.5h.7c1.8 0 4.6-1.1 6.1-2.9 0-.5-.5-.9-.9-1.1zm-6.4.2h-.1c-1 0-1.8.8-1.8 1.8 0 .4.1.7.3 1v.1c-1.4 2.4-4.8 2-3.1-1.2l2.3-3.9 1.4-2.4c2.1-3.6 5-2.2 3.2.9l-2.2 3.7zM206.9 70l-.2.2c-2.2 2.5-4.9 4.5-7 4.5-1.8 0-2.9-1.2-1.6-3.6l.3-.5c1.9.8 5.6.4 7.8-3.5l.4-.7c1.6-2.8.1-4.8-2.4-4.8-2.4 0-4.3 1.3-5.6 3.5l-2.9 5-.2.2c-2.2 2.5-4.3 4.5-5.6 4.5-.7 0-1-.5-.3-1.6l4.3-7.6c1.3-2.3.1-3.9-1.6-3.9-1.3 0-2.7.7-4.2 2.3l4.8-8.3h-3L181.6 70l-.2.2c-2.2 2.5-4.3 4.5-5.6 4.5-.7 0-1-.5-.3-1.6l6.4-11.2h2.4l.9-1.4h-2.5l2.8-4.9h-3l-2.8 4.9H177l-.9 1.4h2.7l-6 10.4c-1.3 2.2-.4 4.3 2 4.3 1.2 0 2.5-.6 3.8-1.6l-.8 1.3h3l4.5-7.9c4.6-5.8 6.6-5 5.4-2.8l-3.9 6.8c-1.3 2.2-.4 4.3 2 4.3 1.8 0 3.8-1.4 5.6-3.2.1 1.9 1.7 3.2 4.1 3.2 3.4 0 6.8-2.6 9.2-5.5.1-.6-.4-1-.8-1.2zm-5.7-4.2c1.7-3 4.8-2.5 3 .6l-.4.7c-1.4 2.4-3.4 2.4-4.5 2l1.9-3.3zM316 70l-.2.2c-1.1 1.3-2.4 2.4-3.6 3.3 1-2.9.7-7.2 2.6-11.1l-2.2-1.2c-1.2 1.7-3.9 5.6-6.7 8.8l-.2.2c-2.2 2.5-4.3 4.5-5.6 4.5-.7 0-1-.5-.3-1.6l6.4-11.2h-3l-5.3 9.3c-2.3 2.1-4 3.2-4.6 3-.7-.3 0-1.4.4-2.1l5.8-10.2h-3l-4.7 8.1-.2.2c-1.4 1.5-3 2.2-4.5 2.2l2.8-4.9c1.8-3.1.1-6.1-2.7-6.1-2.3 0-4.1.9-5.8 3.9l-1.5 2.6-1.2 2.1-.2.2c-2.2 2.5-4.9 4.5-7 4.5-1.8 0-2.9-1.2-1.6-3.6l.3-.5c1.9.8 5.6.4 7.8-3.5l.4-.7c1.6-2.8.1-4.8-2.4-4.8-2.4 0-4.3 1.3-5.6 3.5l-2.9 5-.2.2c-2.5 2.9-4.6 4.7-7 5.7l6.7-11.5h-1.8c0-1.2-1.3-2.9-3.1-2.9-1.6 0-3.9 1.3-5.1 3.5l-2.9 5-.2.2c-2.2 2.5-4.3 4.5-5.6 4.5-.7 0-1-.5-.3-1.6l3-5.2c1-1.8.5-2.9-.4-4.1l-1.7-2c-.4-.5-.4-1.2.2-1.7l-1.6-1.7c-1.7 1.5-1.8 3.2-.8 4.6l.3.3c-1.3 1.9-3.1 4.4-5.1 6.7l-.2.2c-1.4 1.5-3 2.2-4.5 2.2l2.8-4.9c1.8-3.1.1-6.1-2.7-6.1-2.3 0-4.1.9-5.8 3.9L230 68l-1.2 2.1-.2.2c-2.5 2.9-4.6 4.7-7 5.7l6.7-11.5h-1.8c0-1.2-1.3-2.9-3.1-2.9-1.6 0-3.9 1.3-5.1 3.5l-4.2 7.3c-1.3 2.2-.4 4.3 2 4.3.8 0 1.8-.4 2.9-1l-.8 1.4c-4 1.2-6.6 2.9-6.6 5.1 0 2.9 4.4 3.5 6.6-.2l2.3-3.9c2.4-.7 4.7-2.2 7.2-4.5 0 3.8 5.3 4.6 8.5.5h.7c1.8 0 4.6-1.1 6.1-2.9 1.4-1.7 2.6-3.2 5-6.4l.4.5c.4.5.5 1.1.2 1.7l-3.2 5.5c-1.3 2.2-.4 4.3 2 4.3 1.5 0 3.2-1 4.8-2.4 0 1.4.9 2.4 2.6 2.4.8 0 1.8-.4 2.9-1L257 77c-4 1.2-6.6 2.9-6.6 5.1 0 2.9 4.4 3.5 6.6-.2l2.3-3.9c2.4-.8 4.8-2.2 7.3-4.6.1 1.9 1.6 3.2 4.1 3.2 2.4 0 4.9-1.4 6.9-3.2-.1 3.9 5.3 4.7 8.5.6h.7c.9 0 2.2-.3 3.3-.9-.8 2.1-.1 3.5 1.6 3.5 1.6 0 3.5-1.5 4.9-2.9-.3 1.6.7 2.9 2.6 2.9 2.5 0 5.3-2.6 7.8-5.5 1.7-2 3.2-4.1 4.3-5.5-1.2 3.1-.5 8.7-3.4 8.7-1 0-1.4-1.1-1.4-1.1l-1.9 1s.5 2.4 3.3 2.4c.3 0 .5 0 .8-.1h.1c3.1-.4 6.1-2.8 8.3-5.4-.1-.5-.6-1-1.1-1.1zm-42.9-4.2c1.7-3 4.8-2.5 3 .6l-.4.7c-1.4 2.4-3.4 2.4-4.5 2l1.9-3.3zm-57.2 15.6c-.6 1.1-1.6 1-1.6.1 0-.8.7-1.7 3-2.6l-1.4 2.5zm1.4-6.7c-.7 0-1-.5-.3-1.6l4.2-7.3c1.6-2.8 4.8-2.1 3.3.6l-2.3 4c-1.8 2.9-3.7 4.3-4.9 4.3zm18.4-4.5h-.1c-1 0-1.8.8-1.8 1.8 0 .4.1.7.3 1v.1c-1.4 2.4-4.8 2-3.1-1.2l2.3-3.9 1.4-2.4c2.1-3.6 5-2.2 3.2.9l-2.2 3.7zm18.8 11.2c-.6 1.1-1.6 1-1.6.1 0-.8.7-1.7 3-2.6l-1.4 2.5zm1.4-6.7c-.7 0-1-.5-.3-1.6l4.2-7.3c1.6-2.8 4.8-2.1 3.3.6l-2.3 4c-1.8 2.9-3.7 4.3-4.9 4.3zm29.5-4.5h-.1c-1 0-1.8.8-1.8 1.8 0 .4.1.7.3 1v.1c-1.4 2.4-4.8 2-3.1-1.2L283 68l1.4-2.4c2.1-3.6 5-2.2 3.2.9l-2.2 3.7zM101.4 66.8h28.9v2h-28.9zM328.4 66.8h28.9v2h-28.9z"/><path class="apst1" d="M163.2 0h7.7l-1.2 44.9h-14.5l-2-18.5-2 18.5h-14.6L135.5 0h7.6l.6 37.2h.8L149.4 0h7.6l4.9 37.2h.8l.5-37.2zM195 37.2V45h-20.9V0H195v7.7h-13.3v10.8h10.6v7.7h-10.6v10.9H195zM216.4 37.2V45h-18.3V0h7.6v37.2h10.7zM232.6 28.4l7.7-1.8v13.6c0 2.6-2.2 4.7-4.7 4.7h-11.5c-2.6 0-4.7-2.2-4.7-4.7V4.7c0-2.6 2.1-4.7 4.7-4.7h11.5c2.5 0 4.7 2.1 4.7 4.7v9.1l-7.7 1.8v-8h-5.5v29.5h5.5v-8.7zM261.1 0c2.5 0 4.7 2.1 4.7 4.7v35.4c0 2.6-2.2 4.7-4.7 4.7h-11.5c-2.6 0-4.7-2.2-4.7-4.7V4.7c0-2.6 2.1-4.7 4.7-4.7h11.5zm-3 7.7h-5.5v29.5h5.5V7.7zM290.8 0h7.6v44.9h-7.6V22.8l-3.1 11.4h-7.5l-3-11.4v22.1h-7.6V0h7.6l6.8 21.7L290.8 0zM323.1 37.2V45h-20.9V0h20.9v7.7h-13.3v10.8h10.6v7.7h-10.6v10.9h13.3z"/><g><path class="apst2" d="M44.5 157.6c-3.6-3-8.1-5-12.9-5-3.6 0-8.3 2.1-8.3 6.3 0 4.4 5.3 6.1 8.6 7.1l5 1.5c10.4 3.1 18.5 8.3 18.5 20.4 0 7.4-1.8 15.1-7.7 20.1-5.9 5-13.7 7-21.2 7-9.4 0-18.7-3.2-26.3-8.5L8.3 191c4.9 4.3 10.6 7.7 17.3 7.7 4.6 0 9.4-2.3 9.4-7.5 0-5.5-7.6-7.3-11.8-8.5C11 179.1 3 176 3 161.5c0-15.2 10.8-25.1 25.8-25.1 7.5 0 16.8 2.4 23.4 6.2l-7.7 15zM91.8 154.8v12.5h21.9v16.5H91.8v12.9H115v16.5H72.4v-74.8H115v16.5l-23.2-.1zM129.4 138.4H157c20.8 0 38 16.4 38 37.4s-17.3 37.4-38 37.4h-27.6v-74.8zm19.5 58.3h4.4c11.6 0 21.5-6.4 21.5-20.9 0-13.4-8.8-20.9-21.3-20.9h-4.6v41.8zM286.9 174.4c0 24.2-17.4 41.3-41.4 41.3s-41.4-17.1-41.4-41.3c0-22.6 19.9-38.5 41.4-38.5s41.4 15.9 41.4 38.5zm-62.6.1c0 12.9 9.5 22.3 21.1 22.3 11.6 0 21.1-9.4 21.1-22.3 0-10.3-9.5-19.8-21.1-19.8-11.5 0-21.1 9.5-21.1 19.8zM297.2 138.4h19.5l35.6 45.8h.2v-45.8H372v74.8h-19.5l-35.6-45.9h-.2v45.9h-19.5v-74.8zM407.3 200.2l-5.2 13h-20.6l28.8-74.8h21.2l28.2 74.8H439l-4.9-13h-26.8zm13.6-38.7h-.2l-8 23.8h16.2l-8-23.8z"/></g><g><path class="apst2" d="M108.1 287.7c7.7-2.6 8.2-12.2.7-12.2-2.1 0-4.6 1.5-6.3 4.4l-10.2 17.7c-.5.8-.9 1.5-1.5 2.2-2.6-3.6-1.9-9 1.8-11.4l-1.5-1.9c-8 5.1-5.6 19.7 7.7 19.7 11.3 0 16.6-13.6 9.3-18.5zm-9.4 15.6c-2.3 0-4-.5-5.5-1.3.7-.8 1.3-1.7 1.9-2.7l6.4-11.1 1 .1c8.9 1.9 5.4 15-3.8 15zm4.1-17.3l3.1-5.3c2.8-4.8 6.3-2 4.4 1.6-1.5 2.8-3.6 3.6-7.5 3.7z"/><path class="apst2" d="M140.2 300c-.6 2.2.6 4.1 3.1 4.1 1.5 0 3.4-1 5.2-2.5.2 1.5 1.4 2.5 3.3 2.5 2 0 4.2-1.4 6.4-3.4-.4 2 .5 3.4 2.4 3.4 2.1 0 4.4-1.9 6.2-3.6-.4 2 .8 3.6 3.2 3.6 3.1 0 6.7-3.4 9.9-7 0-.1-.1-.1-.1-.2 2.1-2.4 3.9-5 5.3-6.8-1.5 3.9-.7 11-4.3 11-1.3 0-1.8-1.4-1.8-1.4l-2.4 1.2s.7 3.1 4.2 3.1c.4 0 .7 0 1.1-.1h.1c2.8-.4 5.5-2.1 7.9-4.2.1 2.5 2 4.3 5.1 4.3 4.3 0 8.6-3.4 11.7-7-.3-.5-.9-1.1-1.4-1.3l-.3.3c-2.7 3.2-6.2 5.7-8.9 5.7-2.3 0-3.7-1.5-2-4.5l.4-.7c2.4 1 7 .5 9.9-4.4l.5-.9c2-3.5.1-6.1-3-6.1s-5.5 1.6-7.1 4.4l-3.7 6.3h-.1l-.3.3c-1.4 1.6-3.1 3.1-4.6 4.1 1.2-3.6.9-9.2 3.3-14l-2.8-1.5c-1.6 2.2-5 7.1-8.4 11.1l.1.1-.1.2c-2.7 3.2-5.4 5.7-7.1 5.7-.8 0-1.3-.6-.4-2.1l8.1-14.2H175l-6.7 11.8c-2.9 2.6-5.1 4.1-5.8 3.8-.9-.4 0-1.8.5-2.6l7.4-12.9h-3.8l-6 10.4c-.1-.1-.2-.1-.3-.2l-.3.3c-2.7 3.2-5.4 5.7-7.1 5.7-.8 0-1.3-.6-.4-2.1l6.1-10.7h-2.2c.1-1.6-1.5-3.8-4-3.8-2 0-4.9 1.6-6.5 4.4l-3.8 6.6c-.2-.2-.4-.3-.6-.4l-.3.3c-2.7 3.2-6.2 5.7-8.9 5.7-2.3 0-3.7-1.5-2-4.5l3.9-6.8c2.2-3.8 6.1-3.1 3.8.8l-.5.9h3.1l.5-.9c2-3.5.1-6.1-3-6.1s-5.5 1.6-7.1 4.4l-3.8 6.5c-.1-.1-.2-.1-.3-.2l-.3.3c-2.7 3.2-6.2 5.7-8.9 5.7-2.3 0-3.7-1.5-2-4.5l.4-.7c2.4 1 7 .5 9.9-4.4l.5-.9c2-3.5.1-6.1-3-6.1s-5.5 1.6-7.1 4.4l-4 6.8c-2.4 4-.3 7.8 4.2 7.8 3.3 0 6.7-2 9.4-4.6-.1 2.6 1.9 4.6 5.1 4.6 3.3-.2 6.4-2 9.1-4.3zm58-9.6c2.2-3.8 6.1-3.1 3.8.8l-.5.9c-1.8 3.1-4.3 3-5.7 2.5l2.4-4.2zm-54.2 9.3l5.3-9.2c2-3.5 6.1-2.6 4.2.8l-3 5.2c-2.3 3.6-4.6 5.3-6.1 5.3-.8-.1-1.3-.6-.4-2.1zm-24.2-9.3c2.2-3.8 6.1-3.1 3.8.8l-.5.9c-1.8 3.1-4.3 3-5.7 2.5l2.4-4.2zM248.4 304.1c4.3 0 8.6-3.4 11.7-7-.3-.5-.9-1.1-1.4-1.3l-.3.3c-2.7 3.2-6.2 5.7-8.9 5.7-2.3 0-3.7-1.5-2-4.5l.4-.7c2.4 1 7 .5 9.9-4.4l.5-.9c2-3.5.1-6.1-3-6.1s-5.5 1.6-7.1 4.4l-3.7 6.3s-.1 0-.1-.1l-.3.3c-2.7 3.2-5.4 5.7-7.1 5.7-.8 0-1.3-.6-.4-2.1l5.5-9.6c1.6-2.9.1-5-2-5-1.6 0-3.4.9-5.3 2.9l6.1-10.5H237L226.3 296c-.1-.1-.3-.2-.4-.3l-.3.3c-2.7 3.2-5.4 5.7-7.1 5.7-.8 0-1.3-.6-.4-2.1l8.1-14.2h3.1l1.1-1.8h-3.1l3.6-6.2h-3.8l-3.6 6.2h-3.4l-1.1 1.8h3.5l-7.6 13.2c-1.6 2.8-.5 5.4 2.6 5.4 1.9 0 3.9-1.2 6-3l-1.5 2.6h3.8l5.8-10c5.8-7.3 8.4-6.4 6.8-3.6l-4.9 8.6c-1.6 2.8-.5 5.4 2.6 5.4 2.3 0 4.9-1.8 7.3-4.2 0 2.5 1.9 4.3 5 4.3zm3.1-13.7c2.2-3.8 6.1-3.1 3.8.8l-.5.9c-1.8 3.1-4.3 3-5.7 2.5l2.4-4.2zM363.4 295.8l-.3.3c-2.7 3.2-5.4 5.7-7.1 5.7-.8 0-1.3-.6-.4-2.1l12.8-22.2h-3.8l-5.6 9.6c-.7-1.1-1.9-2-3.5-2-2 0-4.9 1.6-6.5 4.4l-3.7 6.4c-.1 0-.2-.1-.2-.1l-.3.3c-2.7 3.2-5.4 5.7-7.1 5.7-.8 0-1.3-.6-.4-2.1l5.5-9.6c1.6-2.9.1-5-2-5-1.6 0-3.4.9-5.3 2.8l1.4-2.5h-3.8l-6.1 10.5c-.1-.1-.2-.2-.4-.2l-.3.3c-2.7 3.2-5.4 5.7-7.1 5.7-.8 0-1.3-.6-.4-2.1l6.1-10.7H323c.1-1.6-1.5-3.8-4-3.8-2 0-4.9 1.6-6.5 4.4l-3.7 6.3-.2.2c-2.7 3.2-5.4 5.7-7.1 5.7-.8 0-1.3-.6-.4-2.1l3.8-6.6c1.3-2.3.7-3.6-.5-5.1l-2.1-2.6c-.5-.7-.5-1.5.2-2.2l-2-2.2c-2.2 1.9-2.3 4.1-1 5.8l.3.4c-1.7 2.4-3.9 5.6-6.4 8.5l.3.3c-3.1 3.6-5.8 5.9-8.8 7.2l4.8-8.2H286l-.4.7c-2 3.5-4.3 6.1-7.3 6.1-2.6 0-3.1-2.6-.8-6.5l1.1-1.9c.7.1 1.4.2 2.2.2 13.5 0 20-18.1 8.1-18.1-2.1 0-4.6 1.5-6.3 4.4l-5.9 10.2c-2.2-1.2-3.4-3.3-3.4-5.4 0-1.8.8-3.5 2.4-4.8l-1.2-2.2c-2.7 1.9-3.9 4.5-3.9 7.1 0 3 1.7 5.9 4.8 7.5l-1.1 2c-2.7 4.6-2.2 9.7 3.2 9.7 1.6 0 3-.5 4.1-1.2l-1 1.7c-5.1 1.6-8.3 3.6-8.3 6.5 0 3.6 5.6 4.4 8.3-.3l2.9-5c3.9-1.2 7.8-3.9 12-8.8-.1-.1-.1-.2-.2-.4 1.7-2 3.1-3.9 6-7.8l.5.6c.5.6.7 1.4.2 2.2l-4 7c-1.6 2.8-.5 5.4 2.6 5.4 1.9 0 4-1.2 6-3 0 1.7 1.1 3 3.3 3 1.5 0 3.4-1 5.2-2.5.2 1.5 1.4 2.5 3.3 2.5 1.8 0 3.8-1.1 5.7-2.8l-1.4 2.4h3.8l5.8-10.1c5.8-7.3 8.4-6.3 6.7-3.5l-4.9 8.6c-1.6 2.8-.5 5.4 2.6 5.4 2 0 4.2-1.4 6.4-3.3-.2 1.9 1 3.3 3.3 3.3 1.5 0 3.4-1 5.3-2.5.2 1.5 1.4 2.5 3.3 2.5 3.1 0 6.7-3.4 9.9-7-.3-.2-1-.8-1.5-1zm-77.9-14.2c1.1-1.9 2.4-2.8 3.4-2.8 6 0 1.8 12.3-8.1 12.3h-.8l5.5-9.5zm-8.1 28.6c-.8 1.4-2.1 1.2-2.1.2s.9-2.1 3.8-3.2l-1.7 3zm39.7-13.8c-2.3 3.6-4.6 5.3-6.1 5.3-.8 0-1.3-.6-.4-2.1l5.3-9.2c2-3.5 6.1-2.6 4.2.8l-3 5.2zm36.7-.2c-2.3 3.8-4.6 5.5-6.2 5.5-.8 0-1.3-.6-.4-2.1l5.3-9.2c2-3.5 6.1-2.6 4.2.8l-2.9 5zM236.7 331.8l-.3.3c-2.7 3.2-5.4 5.7-7.1 5.7-.8 0-1.3-.6-.4-2.1l5.5-9.6c1.6-2.9.1-5-2-5-1.6 0-3.4.9-5.3 2.8l1.4-2.5h-3.8l-6.1 10.6c-.2-.1-.3-.2-.5-.3l-.3.3c-1.7 1.9-3.8 2.8-5.7 2.8l3.6-6.2c2.3-4 .2-7.7-3.4-7.7-2.9 0-5.2 1.2-7.4 5l-1.9 3.2-1.6 2.8c-.1-.1-.2-.1-.3-.2l-.3.3c-3.1 3.6-5.8 5.9-8.8 7.2l10.4-17.8h-3.8l-6.7 11.7c-2.9 2.7-5.2 4.2-5.9 3.9-.9-.4 0-1.8.5-2.6l7.4-12.9h-3.8L184 332c-.1-.1-.2-.1-.3-.2l-.3.3c-2.7 3.2-5.4 5.7-7.1 5.7-.8 0-1.3-.6-.4-2.1l5.5-9.6c1.6-2.9.1-5-2-5-1.6 0-3.4.9-5.3 2.8l1.4-2.5h-3.8l-6.1 10.5c-.1-.1-.2-.2-.4-.2l-.3.3c-2.7 3.2-5.4 5.7-7.1 5.7-.8 0-1.3-.6-.4-2.1l6.1-10.7h-2.2c.1-1.6-1.5-3.8-4-3.8-2 0-4.9 1.6-6.5 4.4l-3.9 6.8c-.3-.2-.6-.4-.8-.5l-.3.3c-2.7 3.2-6.1 5.7-9.8 5.7-2.6 0-4.2-2.6-1.9-6.5l1.1-1.9c.7.1 1.4.2 2.2.2 4 0 8.6-2.1 11.6-7.3 1.1-1.9 1.5-3.6 1.5-5.1 0-3.4-2.2-5.7-5-5.7-2.1 0-4.6 1.5-6.3 4.4l-5.9 10.2c-2.2-1.2-3.4-3.3-3.4-5.4 0-1.8.8-3.5 2.4-4.8l-1.2-2.2c-2.7 1.9-3.9 4.5-3.9 7.1 0 3 1.7 5.9 4.8 7.5l-1.1 2c-2.7 4.6-1.1 9.7 4.3 9.7 4.2 0 7.4-1.9 10-4.4-.8 2.4.4 4.4 3.1 4.4 1.5 0 3.4-1 5.3-2.5.2 1.5 1.4 2.5 3.3 2.5 1.8 0 3.8-1.1 5.7-2.8l-1.4 2.4h3.8l5.8-10.1c5.8-7.3 8.4-6.3 6.7-3.5l-4.9 8.6c-1.6 2.8-.5 5.4 2.6 5.4 2 0 4.3-1.4 6.5-3.4-.5 2.1.5 3.4 2.4 3.4 1.8 0 3.9-1.5 5.6-3.1l-2.1 3.6c-5.1 1.5-8.4 3.6-8.4 6.5 0 3.6 5.6 4.4 8.3-.3l2.9-5c3.2-1 6.3-3 9.6-6.2-.5 5.3 6.5 6.5 10.8 1.1h.8c1.4 0 3.3-.5 5-1.5l-2.5 4.4h3.8l5.8-10.1c5.8-7.3 8.4-6.3 6.7-3.5l-4.9 8.6c-1.6 2.8-.5 5.4 2.6 5.4s6.7-3.4 9.9-7c-.1-.3-.8-.9-1.3-1.1zm-94.4-14.2c1.1-1.9 2.4-2.8 3.4-2.8 1.4 0 2.1.9 2.1 2.3 0 3.5-4.3 9.9-10.2 9.9h-.8l5.5-9.4zm13.4 14.8c-2.3 3.6-4.6 5.3-6.1 5.3-.8 0-1.3-.6-.4-2.1l5.3-9.2c2-3.5 6.1-2.6 4.2.8l-3 5.2zm28.8 13.8c-.8 1.4-2.1 1.2-2.1.2s.9-2.1 3.8-3.2l-1.7 3zm25.6-14.2h-.2c-1.2 0-2.2 1-2.2 2.3 0 .5.1.9.4 1.3v.1c-1.8 3.1-6.1 2.5-3.9-1.5l2.9-5 1.8-3.1c2.7-4.5 6.3-2.7 4 1.2l-2.8 4.7zM324.6 333.1c-.2-.6-.9-1.2-1.4-1.3l-.3.3c-1.4 1.6-3.1 3.1-4.6 4.1 1.2-3.6.9-9.2 3.3-14l-2.8-1.5c-1.6 2.2-5 7.1-8.4 11.1l-.3.3c-2.7 3.2-5.4 5.7-7.1 5.7-.8 0-1.6-.8-1.6-2.6v-1.6c2.7.3 5.5-1.4 7.3-4.5l1-1.8c3.5-6.1-2.2-8.1-6.1-4.5l5.4-9.4h-3.8l-10.8 18.8c-.2-.2-.5-.4-.7-.5l-.3.3c-2.7 3.2-6.2 5.7-8.9 5.7-2.3 0-3.7-1.5-2-4.5l3.9-6.8c2.2-3.8 6.1-3.1 3.8.8l-.5.9h3.1l.5-.9c2-3.5.1-6.1-3-6.1s-5.5 1.6-7.1 4.4l-3.7 6.4c-.1 0-.2-.1-.2-.1l-.3.3c-2.7 3.2-5.4 5.7-7.1 5.7-.8 0-1.3-.6-.4-2.1l8.1-14.2h-3.8l-6.7 11.8c-2.9 2.6-5.1 4.1-5.8 3.8-.9-.4 0-1.8.5-2.6l7.4-12.9h-3.8l-7.4 12.7c-.8.7-1.7 1.4-2.4 2 1.2-3.6.9-9.2 3.3-14l-2.8-1.5c-1.6 2.2-10.3 13.8-13.8 17.8.3.5.9.9 1.4 1.3 2.2-2.5 9.4-11.8 10.7-13.6-1.5 3.9-.7 11-4.3 11-1.3 0-1.8-1.4-1.8-1.4l-2.4 1.2s.7 3.1 4.2 3.1c.4 0 .7 0 1.1-.1h.1c1.9-.3 3.8-1.1 5.6-2.4 0 1.5.9 2.5 2.5 2.5 2.1 0 4.4-1.9 6.2-3.6-.4 2 .8 3.6 3.2 3.6 2.4 0 5-1.9 7.5-4.4 0 2.5 2 4.4 5.1 4.4 3.1 0 6.1-1.7 8.8-4l-2.1 3.7h3.8l4.3-7.5v3c0 3.2.6 4.9 3.7 4.9s6.7-3.4 9.9-7c2.2-2.5 4-5.1 5.4-6.9-1.5 3.9-.7 11-4.3 11-1.3 0-1.8-1.4-1.8-1.4l-2.4 1.2s.7 3.1 4.2 3.1c.4 0 .7 0 1.1-.1h.1c3.8-.7 7.7-3.8 10.5-7.1zm-25.2-3l1.1-1.9c4.4-6.1 7.4-4.4 6-2.1l-1.8 3.1c-1.1 2-4.4 3.4-5.3.9zM324.5 335.7c-1.2 0-2.2 1-2.2 2.2 0 1.2.9 2.2 2.2 2.2 1.2 0 2.2-.9 2.2-2.2 0-1.2-1-2.2-2.2-2.2zM324.7 334.2h3.8l11.9-20.7h-3.8z"/></g><g><path class="apst2" d="M80.4 277.6c0 .3-.1.6-.2.9-.1.3-.3.6-.5.8-.2.2-.5.4-.8.6-.3.1-.7.2-1.1.2-.5 0-.9-.1-1.3-.3-.4-.2-.8-.4-1.1-.7-.2-.3-.4-.6-.6-1-.1-.4-.2-.8-.2-1.3 0-.9.2-1.6.5-2.4.3-.7.7-1.4 1.3-1.9.2-.2.5-.5.8-.7.3-.2.6-.4.9-.5.3-.1.5-.3.7-.4.2-.1.3-.1.4-.2l1.4 2c-.2.1-.5.2-.8.4-.3.1-.6.3-.9.5-.3.2-.5.5-.7.8-.2.3-.3.6-.3 1 .7 0 1.2.2 1.7.6.6.3.8.9.8 1.6zm7.9 0c0 .3-.1.6-.2.9-.1.3-.3.6-.5.8-.2.2-.5.4-.8.6-.3.1-.7.2-1.1.2-.5 0-.9-.1-1.3-.3-.4-.2-.8-.4-1.1-.7-.2-.3-.4-.6-.6-1-.1-.4-.2-.8-.2-1.3 0-.9.2-1.6.5-2.4.3-.7.7-1.4 1.3-1.9.2-.2.5-.5.8-.7.3-.2.6-.4.9-.5.3-.1.5-.3.7-.4.2-.1.3-.1.4-.2l1.4 2c-.2.1-.5.2-.8.4-.3.1-.6.3-.9.5-.3.2-.5.5-.7.8-.2.3-.3.6-.3 1 .7 0 1.2.2 1.7.6.5.3.8.9.8 1.6z"/></g><g><path class="apst2" d="M353.4 336.5c0-.3.1-.6.2-.9.1-.3.3-.6.5-.8.2-.2.5-.4.8-.6.3-.1.7-.2 1.1-.2.5 0 .9.1 1.3.3.4.2.8.4 1.1.7.2.3.4.6.6 1 .1.4.2.8.2 1.3 0 .9-.2 1.6-.5 2.4-.3.7-.7 1.4-1.3 1.9-.2.2-.5.5-.8.7-.3.2-.6.4-.9.5-.3.1-.5.3-.7.4-.2.1-.3.1-.4.2l-1.4-2c.2-.1.5-.2.8-.4.3-.1.6-.3.9-.5.3-.2.5-.5.7-.8.2-.3.3-.6.3-1-.7 0-1.2-.2-1.7-.6-.5-.3-.8-.9-.8-1.6zm-7.8 0c0-.3.1-.6.2-.9.1-.3.3-.6.5-.8.2-.2.5-.4.8-.6.3-.1.7-.2 1.1-.2.5 0 .9.1 1.3.3.4.2.8.4 1.1.7.2.3.4.6.6 1 .1.4.2.8.2 1.3 0 .9-.2 1.6-.5 2.4-.3.7-.7 1.4-1.3 1.9-.2.2-.5.5-.8.7-.3.2-.6.4-.9.5-.3.1-.5.3-.7.4-.2.1-.3.1-.4.2l-1.4-2c.2-.1.5-.2.8-.4.3-.1.6-.3.9-.5.3-.2.5-.5.7-.8.2-.3.3-.6.3-1-.7 0-1.2-.2-1.7-.6-.6-.3-.8-.9-.8-1.6z"/></g></svg><svg id="intro_text--mobile" viewBox="92 70 275.9 210" width="275.9" height="210" x="2170"><style>.aqst0{fill:#766458}.aqst1{fill:#81b3d3}.aqst2{fill:#fff}</style><path class="aqst0" d="M191.2 112l-.1.1c-.8.9-1.8 1.3-2.7 1.3l1.7-2.9c1.1-1.9.1-3.7-1.6-3.7-1.4 0-2.5.6-3.5 2.3l-.9 1.5-.7 1.3-.1.1c-1.3 1.5-2.6 2.7-3.4 2.7-.4 0-.6-.3-.2-1l3.9-6.7h1.5l.5-.9h-1.5l1.7-2.9H184l-1.7 2.9h-1.6l-.5.9h1.6l-3.6 6.3c-.8 1.3-.2 2.6 1.2 2.6 1 0 2.2-.8 3.3-1.9 0 2.3 3.2 2.7 5.1.3h.4c1.1 0 2.8-.7 3.7-1.7-.1-.2-.5-.5-.7-.6zm-3.8.1c-.7 0-1.1.5-1.1 1.1 0 .2.1.4.2.6-.8 1.5-2.9 1.2-1.8-.7l1.4-2.4.9-1.5c1.3-2.1 3-1.3 1.9.6l-1.5 2.3zM216.1 112l-.1.1c-1.3 1.5-3 2.7-4.2 2.7-1.1 0-1.8-.7-.9-2.1l.2-.3c1.2.5 3.3.3 4.7-2.1l.3-.4c1-1.7 0-2.9-1.4-2.9-1.5 0-2.6.8-3.4 2.1l-1.7 3-.1.1c-1.3 1.5-2.6 2.7-3.4 2.7-.4 0-.6-.3-.2-1l2.6-4.5c.8-1.4 0-2.3-1-2.3-.8 0-1.6.4-2.5 1.4l2.9-5h-1.8l-5 8.7-.1.1c-1.3 1.5-2.6 2.7-3.4 2.7-.4 0-.6-.3-.2-1l3.9-6.7h1.5l.5-.9h-1.5l1.7-2.9h-1.8l-1.7 2.9h-1.6l-.5.9h1.6l-3.6 6.3c-.8 1.3-.2 2.6 1.2 2.6.7 0 1.5-.4 2.3-1l-.5.8h1.8l2.7-4.7c2.8-3.5 4-3 3.2-1.7l-2.3 4.1c-.8 1.3-.2 2.6 1.2 2.6 1.1 0 2.3-.8 3.4-1.9.1 1.1 1 1.9 2.4 1.9 2 0 4.1-1.6 5.5-3.3-.2-.6-.5-.9-.7-1zm-3.4-2.5c1-1.8 2.9-1.5 1.8.4l-.3.4c-.9 1.5-2 1.4-2.7 1.2l1.2-2zM281.6 112l-.1.1c-.7.8-1.5 1.5-2.2 2 .6-1.7.4-4.3 1.6-6.6l-1.3-.7c-.7 1-2.4 3.4-4 5.3l-.1.1c-1.3 1.5-2.6 2.7-3.4 2.7-.4 0-.6-.3-.2-1l3.8-6.7h-1.8l-3.2 5.6c-1.4 1.2-2.4 1.9-2.8 1.8-.4-.2 0-.9.2-1.2l3.5-6.1h-1.8L267 112l-.1.1c-.8.9-1.8 1.3-2.7 1.3l1.7-2.9c1.1-1.9.1-3.7-1.6-3.7-1.4 0-2.5.6-3.5 2.3l-.9 1.5-.7 1.3-.1.1c-1.3 1.5-3 2.7-4.2 2.7-1.1 0-1.8-.7-.9-2.1l.2-.3c1.2.5 3.3.3 4.7-2.1l.3-.4c1-1.7 0-2.9-1.4-2.9-1.5 0-2.6.8-3.4 2.1l-1.7 3-.1.1c-1.5 1.7-2.8 2.8-4.2 3.4l4-6.9h-1.1c0-.7-.8-1.7-1.9-1.7-1 0-2.3.8-3.1 2.1l-1.7 3-.1.1c-1.3 1.5-2.6 2.7-3.4 2.7-.4 0-.6-.3-.2-1l1.8-3.1c.6-1.1.3-1.7-.3-2.4l-1-1.2c-.3-.3-.3-.7.1-1l-.9-1c-1 .9-1.1 1.9-.5 2.8l.2.2c-.8 1.1-1.9 2.6-3 4l-.1.1c-.8.9-1.8 1.3-2.7 1.3l1.7-2.9c1.1-1.9.1-3.7-1.6-3.7-1.4 0-2.5.6-3.5 2.3l-.9 1.5-.7 1.3-.1.1c-1.5 1.7-2.8 2.8-4.2 3.4l4-6.9H228c0-.7-.8-1.7-1.9-1.7-1 0-2.3.8-3.1 2.1l-2.5 4.4c-.8 1.3-.2 2.6 1.2 2.6.5 0 1.1-.2 1.7-.6l-.5.8c-2.4.7-3.9 1.7-3.9 3.1 0 1.7 2.6 2.1 3.9-.1l1.4-2.4c1.4-.4 2.8-1.3 4.3-2.7 0 2.3 3.2 2.8 5.1.3h.4c1.1 0 2.8-.7 3.7-1.7.9-1 1.5-1.9 3-3.9l.2.3c.2.3.3.7.1 1l-1.9 3.3c-.8 1.3-.2 2.6 1.2 2.6.9 0 1.9-.6 2.9-1.5 0 .8.5 1.5 1.6 1.5.5 0 1.1-.2 1.7-.6l-.5.8c-2.4.7-3.9 1.7-3.9 3.1 0 1.7 2.6 2.1 3.9-.1l1.4-2.4c1.5-.5 2.9-1.3 4.4-2.8.1 1.1 1 1.9 2.4 1.9 1.5 0 2.9-.8 4.2-1.9-.1 2.4 3.2 2.8 5.1.3h.4c.6 0 1.3-.2 2-.5-.5 1.2 0 2.1 1 2.1s2.1-.9 3-1.7c-.2 1 .4 1.7 1.5 1.7 1.5 0 3.2-1.6 4.7-3.3 1-1.2 1.9-2.4 2.6-3.3-.7 1.9-.3 5.2-2 5.2-.6 0-.8-.7-.8-.7l-1.1.6s.3 1.5 2 1.5h.6c1.8-.2 3.6-1.7 5-3.3-.4-.2-.7-.5-.9-.6zm-25.8-2.5c1-1.8 2.9-1.5 1.8.4l-.3.4c-.9 1.5-2 1.4-2.7 1.2l1.2-2zm-34.3 9.4c-.4.7-1 .6-1 .1s.4-1 1.8-1.5l-.8 1.4zm.8-4.1c-.4 0-.6-.3-.2-1l2.5-4.4c1-1.7 2.9-1.2 2 .4l-1.4 2.4c-1 1.8-2.1 2.6-2.9 2.6zm11.1-2.7c-.7 0-1.1.5-1.1 1.1 0 .2.1.4.2.6-.8 1.5-2.9 1.2-1.8-.7l1.4-2.4.9-1.5c1.3-2.1 3-1.3 1.9.6l-1.5 2.3zm11.2 6.8c-.4.7-1 .6-1 .1s.4-1 1.8-1.5l-.8 1.4zm.9-4.1c-.4 0-.6-.3-.2-1l2.5-4.4c1-1.7 2.9-1.2 2 .4l-1.4 2.4c-1.1 1.8-2.2 2.6-2.9 2.6zm17.7-2.7c-.7 0-1.1.5-1.1 1.1 0 .2.1.4.2.6-.8 1.5-2.9 1.2-1.8-.7l1.4-2.4.9-1.5c1.3-2.1 3-1.3 1.9.6l-1.5 2.3zM152.8 110.1h17.4v1.2h-17.4zM289 110.1h17.4v1.2H289z"/><path class="aqst1" d="M189.9 70h4.6l-.7 27H185l-1.2-11.1-1.1 11.1h-8.8l-.7-27h4.6l.4 22.3h.5l2.9-22.3h4.5l2.9 22.3h.5l.4-22.3zM209 92.3V97h-12.5V70H209v4.6h-8v6.5h6.3v4.6H201v6.5h8zM221.8 92.3V97h-11V70h4.6v22.3h6.4zM231.5 87l4.6-1.1v8.2c0 1.5-1.3 2.8-2.8 2.8h-6.9c-1.6 0-2.8-1.3-2.8-2.8V72.9c0-1.6 1.3-2.8 2.8-2.8h6.9c1.5 0 2.8 1.3 2.8 2.8v5.5l-4.6 1.1v-4.8h-3.3v17.7h3.3V87zM248.6 70c1.5 0 2.8 1.3 2.8 2.8v21.3c0 1.5-1.3 2.8-2.8 2.8h-6.9c-1.6 0-2.8-1.3-2.8-2.8V72.9c0-1.6 1.3-2.8 2.8-2.8h6.9zm-1.8 4.6h-3.3v17.7h3.3V74.6zM266.5 70h4.5v27h-4.6V83.7l-1.8 6.9h-4.5l-1.8-6.9V97h-4.6V70h4.5l4.1 13 4.2-13zM285.8 92.3V97h-12.5V70h12.5v4.6h-8v6.5h6.3v4.6h-6.3v6.5h8z"/><g><path class="aqst2" d="M118.6 164.6c-2.1-1.8-4.9-3-7.7-3-2.1 0-5 1.3-5 3.8 0 2.6 3.2 3.6 5.2 4.3l3 .9c6.3 1.8 11.1 5 11.1 12.3 0 4.5-1.1 9.1-4.6 12.1-3.5 3-8.2 4.2-12.7 4.2-5.7 0-11.2-1.9-15.8-5.1l5-9.4c2.9 2.6 6.4 4.6 10.4 4.6 2.7 0 5.7-1.4 5.7-4.5 0-3.3-4.6-4.4-7.1-5.1-7.3-2.1-12.1-4-12.1-12.7 0-9.1 6.5-15.1 15.5-15.1 4.5 0 10.1 1.4 14.1 3.7l-5 9zM147.1 162.9v7.5h13.2v9.9h-13.2v7.7H161v9.9h-25.5V153H161v9.9h-13.9zM169.6 153h16.6c12.5 0 22.8 9.8 22.8 22.5 0 12.6-10.4 22.5-22.8 22.5h-16.6v-45zm11.7 35h2.6c7 0 12.9-3.8 12.9-12.6 0-8-5.3-12.6-12.8-12.6h-2.7V188zM264.1 174.6c0 14.5-10.4 24.8-24.8 24.8s-24.8-10.2-24.8-24.8c0-13.6 11.9-23.1 24.8-23.1s24.8 9.6 24.8 23.1zm-37.5.1c0 7.7 5.7 13.4 12.7 13.4 7 0 12.7-5.7 12.7-13.4 0-6.2-5.7-11.9-12.7-11.9-7 .1-12.7 5.7-12.7 11.9zM270.3 153H282l21.4 27.5h.1V153h11.7v44.9h-11.7l-21.4-27.5h-.1v27.5h-11.7V153zM336.4 190.1l-3.1 7.8h-12.4l17.3-44.9h12.7l16.9 44.9h-12.4l-2.9-7.8h-16.1zm8.1-23.2h-.1l-4.8 14.3h9.7l-4.8-14.3z"/></g><g><path class="aqst2" d="M156.8 242.7c4.6-1.6 4.9-7.3.4-7.3-1.2 0-2.7.9-3.8 2.7l-6.1 10.6c-.3.5-.6.9-.9 1.3-1.6-2.2-1.1-5.4 1.1-6.8l-.9-1.2c-4.8 3-3.4 11.8 4.6 11.8 6.8-.1 10-8.2 5.6-11.1zm-5.6 9.3c-1.4 0-2.4-.3-3.3-.8.4-.5.8-1 1.1-1.6l3.8-6.6.6.1c5.4 1 3.3 8.9-2.2 8.9zm2.4-10.4l1.8-3.2c1.7-2.9 3.8-1.2 2.6 1-.8 1.7-2.1 2.2-4.4 2.2z"/><path class="aqst2" d="M176 250c-.4 1.3.3 2.4 1.9 2.4.9 0 2.1-.6 3.1-1.5.1.9.8 1.5 2 1.5s2.5-.8 3.8-2c-.3 1.2.3 2 1.4 2 1.2 0 2.6-1.1 3.7-2.2-.2 1.2.5 2.2 1.9 2.2 1.9 0 4-2 5.9-4.2 0 0 0-.1-.1-.1 1.3-1.5 2.4-3 3.2-4.1-.9 2.4-.4 6.6-2.6 6.6-.8 0-1.1-.8-1.1-.8l-1.4.7s.4 1.8 2.5 1.8h.7c1.7-.2 3.3-1.2 4.8-2.5 0 1.5 1.2 2.6 3.1 2.6 2.6 0 5.1-2 7-4.2-.2-.3-.5-.7-.9-.8l-.2.2c-1.6 1.9-3.7 3.4-5.3 3.4-1.4 0-2.2-.9-1.2-2.7l.2-.4c1.5.6 4.2.3 5.9-2.6l.3-.6c1.2-2.1 0-3.7-1.8-3.7s-3.3 1-4.3 2.6l-2.2 3.8h-.1l-.2.2c-.8 1-1.8 1.9-2.7 2.5.7-2.2.6-5.5 2-8.4l-1.7-.9c-.9 1.3-3 4.3-5.1 6.7 0 0 0 .1.1.1l-.1.1c-1.6 1.9-3.2 3.4-4.2 3.4-.5 0-.8-.3-.3-1.2l4.9-8.5H197l-4 7.1c-1.7 1.6-3.1 2.5-3.5 2.3-.6-.2 0-1.1.3-1.6l4.4-7.7h-2.3l-3.6 6.3c-.1 0-.1-.1-.2-.1l-.2.2c-1.6 1.9-3.2 3.4-4.2 3.4-.5 0-.8-.3-.3-1.2l3.7-6.4h-1.3c.1-1-.9-2.3-2.4-2.3-1.2 0-2.9 1-3.9 2.6l-2.3 4c-.1-.1-.2-.2-.3-.2l-.2.2c-1.6 1.9-3.7 3.4-5.3 3.4-1.4 0-2.2-.9-1.2-2.7l2.3-4.1c1.3-2.3 3.6-1.9 2.3.5l-.3.6h1.9l.3-.6c1.2-2.1 0-3.7-1.8-3.7s-3.3 1-4.3 2.6l-2.3 3.9c-.1 0-.1-.1-.2-.1l-.2.2c-1.6 1.9-3.7 3.4-5.3 3.4-1.4 0-2.2-.9-1.2-2.7l.2-.4c1.5.6 4.2.3 5.9-2.6l.3-.6c1.2-2.1 0-3.7-1.8-3.7s-3.3 1-4.3 2.6l-2.4 4.1c-1.4 2.4-.2 4.7 2.5 4.7 2 0 4-1.2 5.7-2.8-.1 1.6 1.1 2.8 3.1 2.8 2-.3 3.9-1.4 5.4-2.8zm34.9-5.7c1.3-2.3 3.6-1.9 2.3.5l-.3.6c-1.1 1.9-2.6 1.8-3.4 1.5l1.4-2.6zm-32.5 5.5l3.2-5.5c1.2-2.1 3.7-1.6 2.5.5l-1.8 3.1c-1.4 2.2-2.7 3.2-3.7 3.2-.5 0-.8-.4-.2-1.3zm-14.6-5.5c1.3-2.3 3.6-1.9 2.3.5l-.3.6c-1.1 1.9-2.6 1.8-3.4 1.5l1.4-2.6zM241 252.5c2.6 0 5.1-2 7-4.2-.2-.3-.5-.7-.9-.8l-.2.2c-1.6 1.9-3.7 3.4-5.3 3.4-1.4 0-2.2-.9-1.2-2.7l.2-.4c1.5.6 4.2.3 5.9-2.6l.3-.6c1.2-2.1 0-3.7-1.8-3.7s-3.3 1-4.3 2.6l-2.2 3.8h-.1l-.2.2c-1.6 1.9-3.2 3.4-4.2 3.4-.5 0-.8-.3-.3-1.2l3.3-5.8c1-1.7 0-3-1.2-3-1 0-2 .5-3.2 1.7l3.6-6.3h-2.3l-6.4 11.1c-.1-.1-.2-.1-.3-.2l-.2.2c-1.6 1.9-3.2 3.4-4.2 3.4-.5 0-.8-.3-.3-1.2l4.9-8.5h1.9l.7-1.1h-1.9l2.1-3.7h-2.3l-2.1 3.7H224l-.7 1.1h2.1l-4.6 7.9c-1 1.7-.3 3.2 1.6 3.2 1.1 0 2.4-.7 3.6-1.8l-.9 1.6h2.3l3.5-6c3.5-4.4 5.1-3.8 4.1-2.1l-3 5.1c-1 1.7-.3 3.2 1.6 3.2 1.4 0 2.9-1.1 4.4-2.5 0 1.5 1.1 2.6 3 2.6zm1.8-8.2c1.3-2.3 3.6-1.9 2.3.5l-.3.6c-1.1 1.9-2.6 1.8-3.4 1.5l1.4-2.6zM310 247.5l-.2.2c-1.6 1.9-3.2 3.4-4.2 3.4-.5 0-.8-.3-.3-1.2l7.7-13.3h-2.3l-3.3 5.8c-.4-.6-1.1-1.2-2.1-1.2-1.2 0-2.9 1-3.9 2.6l-2.2 3.8-.1-.1-.2.2c-1.6 1.9-3.2 3.4-4.2 3.4-.5 0-.8-.3-.3-1.2l3.3-5.8c1-1.7 0-3-1.2-3-1 0-2 .5-3.2 1.7l.9-1.5h-2.3l-3.6 6.3c-.1 0-.1-.1-.2-.1l-.2.2c-1.6 1.9-3.2 3.4-4.2 3.4-.5 0-.8-.3-.3-1.2l3.7-6.4h-1.3c.1-1-.9-2.3-2.4-2.3-1.2 0-2.9 1-3.9 2.6l-2.2 3.8-.1.1c-1.6 1.9-3.2 3.4-4.2 3.4-.5 0-.8-.3-.3-1.2l2.3-4c.8-1.4.4-2.2-.3-3.1l-1.3-1.5c-.3-.4-.3-.9.1-1.3l-1.2-1.3c-1.3 1.2-1.4 2.5-.6 3.5l.2.3c-1 1.4-2.4 3.3-3.9 5.1 0 .1.1.1.2.2-1.9 2.2-3.5 3.6-5.3 4.3l2.9-4.9h-2.3l-.2.4c-1.2 2.1-2.6 3.6-4.4 3.6-1.6 0-1.8-1.6-.5-3.9l.6-1.1c.4.1.8.1 1.3.1 8.1 0 12-10.8 4.9-10.8-1.2 0-2.7.9-3.8 2.7l-3.5 6.1c-1.3-.7-2-2-2-3.2 0-1.1.5-2.1 1.5-2.9l-.7-1.3c-1.6 1.2-2.3 2.7-2.3 4.2 0 1.8 1 3.6 2.9 4.5l-.7 1.2c-1.6 2.8-1.3 5.8 1.9 5.8 1 0 1.8-.3 2.5-.7l-.6 1c-3.1.9-5 2.2-5 3.9 0 2.2 3.3 2.6 5-.2l1.8-3c2.4-.7 4.7-2.4 7.2-5.3 0-.1-.1-.1-.1-.2 1-1.2 1.9-2.3 3.6-4.7l.3.4c.3.4.4.8.1 1.3l-2.4 4.2c-1 1.7-.3 3.2 1.6 3.2 1.1 0 2.4-.7 3.6-1.8 0 1 .7 1.8 2 1.8.9 0 2.1-.6 3.1-1.5.1.9.8 1.5 2 1.5 1.1 0 2.3-.7 3.4-1.7l-.8 1.5h2.3l3.5-6.1c3.5-4.4 5-3.8 4-2.1l-3 5.1c-1 1.7-.3 3.2 1.6 3.2 1.2 0 2.5-.8 3.8-2-.1 1.1.6 2 2 2 .9 0 2.1-.6 3.2-1.5.1.9.8 1.5 2 1.5 1.9 0 4-2 5.9-4.2-.4-.2-.8-.6-1.1-.7zm-46.8-8.5c.7-1.2 1.4-1.7 2.1-1.7 3.6 0 1.1 7.4-4.9 7.4h-.5l3.3-5.7zm-4.8 17.1c-.5.9-1.2.7-1.2.1s.5-1.3 2.3-1.9l-1.1 1.8zm23.8-8.2c-1.4 2.2-2.7 3.2-3.7 3.2-.5 0-.8-.3-.3-1.2l3.2-5.5c1.2-2.1 3.7-1.6 2.5.5l-1.7 3zm22-.2c-1.4 2.3-2.8 3.3-3.7 3.3-.5 0-.8-.3-.3-1.2l3.2-5.5c1.2-2.1 3.7-1.6 2.5.5l-1.7 2.9zM234 269.1l-.2.2c-1.6 1.9-3.2 3.4-4.2 3.4-.5 0-.8-.3-.3-1.2l3.3-5.8c1-1.7 0-3-1.2-3-1 0-2 .5-3.2 1.7l.9-1.5h-2.3l-3.7 6.3c-.1-.1-.2-.1-.3-.2l-.2.2c-1 1.1-2.3 1.7-3.4 1.7l2.1-3.7c1.4-2.4.1-4.6-2-4.6-1.8 0-3.1.7-4.4 3l-1.1 1.9-1 1.7c-.1 0-.1-.1-.2-.1l-.2.2c-1.9 2.2-3.5 3.6-5.3 4.3l6.2-10.7H211l-4 7c-1.8 1.6-3.1 2.5-3.5 2.3-.6-.2 0-1.1.3-1.6l4.4-7.7h-2.3l-3.6 6.3c-.1 0-.1-.1-.2-.1l-.2.2c-1.6 1.9-3.2 3.4-4.2 3.4-.5 0-.8-.3-.3-1.2l3.3-5.8c1-1.7 0-3-1.2-3-1 0-2 .5-3.2 1.7l.9-1.5h-2.3l-3.6 6.3c-.1 0-.1-.1-.2-.1l-.2.2c-1.6 1.9-3.2 3.4-4.2 3.4-.5 0-.8-.3-.3-1.2l3.7-6.4h-1.3c.1-1-.9-2.3-2.4-2.3-1.2 0-2.9 1-3.9 2.6l-2.4 4.1c-.2-.1-.3-.3-.5-.3l-.2.2c-1.6 1.9-3.7 3.4-5.9 3.4-1.6 0-2.5-1.6-1.1-3.9l.6-1.1c.4.1.8.1 1.3.1 2.4 0 5.2-1.2 7-4.4.6-1.1.9-2.2.9-3.1 0-2.1-1.3-3.4-3-3.4-1.2 0-2.7.9-3.8 2.7l-3.5 6.1c-1.3-.7-2-2-2-3.2 0-1.1.5-2.1 1.5-2.9l-.7-1.3c-1.6 1.2-2.3 2.7-2.3 4.2 0 1.8 1 3.6 2.9 4.5l-.7 1.2c-1.6 2.8-.7 5.8 2.6 5.8 2.5 0 4.4-1.1 6-2.6-.5 1.4.2 2.6 1.8 2.6.9 0 2.1-.6 3.2-1.5.1.9.8 1.5 2 1.5 1.1 0 2.3-.7 3.4-1.7l-.8 1.5h2.3l3.5-6.1c3.5-4.4 5-3.8 4-2.1l-3 5.1c-1 1.7-.3 3.2 1.6 3.2 1.2 0 2.6-.9 3.9-2.1-.3 1.3.3 2.1 1.4 2.1 1.1 0 2.3-.9 3.4-1.8l-1.2 2.1c-3.1.9-5 2.2-5 3.9 0 2.2 3.3 2.6 5-.2l1.8-3c1.9-.6 3.8-1.8 5.7-3.7-.3 3.2 3.9 3.9 6.5.7h.5c.8 0 2-.3 3-.9l-1.5 2.6h2.3l3.5-6.1c3.5-4.4 5-3.8 4-2.1l-3 5.1c-1 1.7-.3 3.2 1.6 3.2 1.9 0 4-2 5.9-4.2-.3 0-.7-.4-1-.5zm-56.7-8.5c.7-1.2 1.4-1.7 2.1-1.7.9 0 1.2.6 1.2 1.4 0 2.1-2.6 6-6.1 6h-.5l3.3-5.7zm8.1 8.9c-1.4 2.2-2.7 3.2-3.7 3.2-.5 0-.8-.3-.3-1.2l3.2-5.5c1.2-2.1 3.7-1.6 2.5.5l-1.7 3zm17.3 8.2c-.5.9-1.2.7-1.2.1s.5-1.3 2.3-1.9l-1.1 1.8zm15.3-8.5h-.1c-.7 0-1.3.6-1.3 1.4 0 .3.1.5.2.8-1.1 1.8-3.7 1.5-2.3-.9l1.7-3 1.1-1.9c1.6-2.7 3.8-1.6 2.4.7l-1.7 2.9zM286.7 269.9c-.1-.3-.5-.7-.9-.8l-.2.2c-.8 1-1.8 1.9-2.7 2.5.7-2.2.6-5.5 2-8.4l-1.7-.9c-.9 1.3-3 4.3-5.1 6.7l-.2.2c-1.6 1.9-3.2 3.4-4.2 3.4-.5 0-1-.5-1-1.5v-.9c1.6.2 3.3-.9 4.4-2.7l.6-1c2.1-3.6-1.3-4.8-3.7-2.7l3.2-5.6h-2.3l-6.5 11.3c-.1-.1-.3-.2-.4-.3l-.2.2c-1.6 1.9-3.7 3.4-5.3 3.4-1.4 0-2.2-.9-1.2-2.7l2.3-4.1c1.3-2.3 3.6-1.9 2.3.5l-.3.6h1.9l.3-.6c1.2-2.1 0-3.7-1.8-3.7s-3.3 1-4.3 2.6l-2.2 3.8-.1-.1-.2.2c-1.6 1.9-3.2 3.4-4.2 3.4-.5 0-.8-.3-.3-1.2l4.9-8.5h-2.3l-4 7.1c-1.7 1.6-3.1 2.5-3.5 2.3-.6-.2 0-1.1.3-1.6l4.4-7.7h-2.3l-4.4 7.6-1.5 1.2c.7-2.2.6-5.5 2-8.4l-1.7-.9c-.9 1.3-6.2 8.2-8.2 10.7.2.3.5.6.9.8 1.3-1.5 5.6-7.1 6.4-8.1-.9 2.4-.4 6.6-2.6 6.6-.8 0-1.1-.8-1.1-.8l-1.4.7s.4 1.8 2.5 1.8h.7c1.2-.2 2.3-.7 3.4-1.4 0 .9.6 1.5 1.5 1.5 1.2 0 2.6-1.1 3.7-2.2-.2 1.2.5 2.2 1.9 2.2s3-1.1 4.5-2.6c0 1.5 1.2 2.6 3.1 2.6 1.8 0 3.7-1 5.3-2.4l-1.3 2.2h2.3l2.6-4.5v1.8c0 1.9.4 2.9 2.2 2.9 1.9 0 4-2 5.9-4.2 1.3-1.5 2.4-3.1 3.2-4.2-.9 2.4-.4 6.6-2.6 6.6-.8 0-1.1-.8-1.1-.8l-1.4.7s.4 1.8 2.5 1.8h.7c2.5-.8 4.8-2.6 6.5-4.6zm-15.1-1.8l.7-1.1c2.6-3.7 4.4-2.6 3.6-1.3l-1.1 1.9c-.7 1.1-2.7 2-3.2.5zM286.6 271.4c-.7 0-1.3.6-1.3 1.3 0 .7.6 1.3 1.3 1.3.7 0 1.3-.6 1.3-1.3.1-.7-.5-1.3-1.3-1.3zM286.7 270.5h2.3l7.2-12.4h-2.3z"/></g><g><path class="aqst2" d="M140.2 236.6c0 .2 0 .4-.1.5-.1.2-.2.3-.3.5-.1.1-.3.3-.5.3-.2.1-.4.1-.7.1-.3 0-.5-.1-.8-.2-.3-.1-.5-.2-.6-.4-.2-.2-.3-.4-.3-.6-.1-.2-.1-.5-.1-.8 0-.5.1-1 .3-1.4.2-.4.4-.8.8-1.2.1-.1.3-.3.5-.4.2-.1.4-.2.5-.3.2-.1.3-.2.4-.2.1-.1.2-.1.2-.1l.8 1.2c-.1.1-.3.1-.5.2s-.4.2-.5.3c-.2.1-.3.3-.4.5-.1.2-.2.4-.2.6.4 0 .7.1 1 .3.3.3.5.6.5 1.1zm4.7 0c0 .2 0 .4-.1.5-.1.2-.2.3-.3.5-.1.1-.3.3-.5.3-.2.1-.4.1-.7.1-.3 0-.5-.1-.8-.2-.3-.1-.5-.2-.6-.4-.1-.2-.3-.4-.3-.6-.1-.2-.1-.5-.1-.8 0-.5.1-1 .3-1.4.2-.4.4-.8.8-1.2.1-.1.3-.3.5-.4.2-.1.4-.2.5-.3.2-.1.3-.2.4-.2.1-.1.2-.1.2-.1l.8 1.2c-.1.1-.3.1-.5.2s-.4.2-.5.3c-.2.1-.3.3-.4.5-.1.2-.2.4-.2.6.4 0 .7.1 1 .3.4.3.5.6.5 1.1z"/></g><g><path class="aqst2" d="M304 271.9c0-.2 0-.4.1-.5.1-.2.2-.3.3-.5.1-.1.3-.3.5-.3.2-.1.4-.1.7-.1.3 0 .5.1.8.2.3.1.5.2.6.4.1.2.3.4.3.6.1.2.1.5.1.8 0 .5-.1 1-.3 1.4-.2.4-.4.8-.8 1.2-.1.1-.3.3-.5.4-.2.1-.4.2-.5.3-.2.1-.3.2-.4.2-.1.1-.2.1-.2.1l-.8-1.2c.1-.1.3-.1.5-.2s.4-.2.5-.3c.2-.1.3-.3.4-.5.1-.2.2-.4.2-.6-.4 0-.7-.1-1-.3-.3-.3-.5-.6-.5-1.1zm-4.7 0c0-.2 0-.4.1-.5.1-.2.2-.3.3-.5.1-.1.3-.3.5-.3.2-.1.4-.1.7-.1.3 0 .5.1.8.2.2.1.5.2.6.4.1.2.3.4.3.6.1.2.1.5.1.8 0 .5-.1 1-.3 1.4-.2.4-.4.8-.8 1.2-.1.1-.3.3-.5.4-.2.1-.4.2-.5.3-.2.1-.3.2-.4.2-.1.1-.2.1-.2.1l-.8-1.2c.1-.1.3-.1.5-.2s.4-.2.5-.3c.2-.1.3-.3.4-.5.1-.2.2-.4.2-.6-.4 0-.7-.1-1-.3-.4-.3-.5-.6-.5-1.1z"/></g></svg><svg id="logo" viewBox="0 0 186.6 96.4" width="186.6" height="96.4" x="2446"><style>.arst0{fill:#81b3d3}.arst1{fill:#23a9e1}.arst2{fill:#fff}.arst3{fill:#491213}.arst4{fill:#dc6243}.arst5{fill:#f49774}.arst6{fill:#f4b1a4}</style><g id="arLayer_2"><path class="arst0" d="M186.6 0H0l80.5 90.5c7.1 7.9 18.6 7.9 25.7 0L186.6 0z"/><path class="arst1" d="M43.2.7l49.6 58.4 49.3-58z"/><path class="arst2" d="M122 17.3c-5.1 0-10.1.1-15.2.1 6-6.9 8.7-6.2 15.2-.1zM80.8 22.7h26.7c-2-1.2-6.7-7.1-9.3-4.9-.2.2-7.5-8.9-12.3-4.5-4.2 3.8-6.1-.5-10.9 2.5-5.3 3.6 3.2 5.7 5.8 6.9z"/><path class="arst3" d="M93.1 0H42.2v22.5L92.8 84l.3-.4 50.7-60.4V0H93.1zM54.9 1.8h5.5V19l-5.5-6.5V1.8zm-.8 9.8l-5-5.9V1.8h5v9.8zm19.3-2.7l-5.7-7.1h5.7v7.1zm-6.6 3.8L61.2 1.8h5.6v10.9zm-5.7-9.3l5.5 10.7c-2.8 2.1-4.7 4-5.5 4.9V3.4zm6.5-.5l5.6 6.9c-1.1.6-2.2 1.3-3.1 1.9-.9.6-1.7 1.2-2.5 1.8V2.9zm6.6-.2L79 6.9c-1.7.7-3.3 1.5-4.8 2.3V2.7zm5.6 3.9l-5.4-4.8h6v4.6c-.3 0-.4.1-.6.2zm19.1-4.8h5l-5 2.4V1.8zm-5.8 0h4.4l-4.4 2.1V1.8zm-.9 2l-4.2-2h4.2v2zm-5.5.5l-5.1-2.5h5.1v2.5zm-5.6-1.9l4.7 2.3c-1.6.4-3.2.8-4.7 1.3V2.4zm6.4 0L90.9 4c-1.2.1-2.3.2-3.5.4v-2zm10.4.1v1.9c-1.1-.2-2.2-.3-3.4-.4l3.4-1.5zm6.5-.1v3.7c-1.5-.5-3.1-1-4.8-1.4l4.8-2.3zm.7-.6h5.9l-5.4 4.8c-.2-.1-.3-.1-.5-.2V1.8zm13.6 0h5.6l-5.6 10.9V1.8zm-6.6 0h5.7l-5.7 7v-7zm-.8.9v6.5c-1.5-.8-3.1-1.6-4.8-2.3l4.8-4.2zm6.6.2v10.5c-.7-.5-1.5-1-2.3-1.6-1-.7-2.2-1.4-3.4-2.1l5.7-6.8zm6.4.5v15.2c-1.1-1-2.9-2.7-5.5-4.6l5.5-10.6zm.8 16V1.8h5.5v11.4l-5.5 6.2c.1.1 0 .1 0 0zm6.3-17.6h5v4.7l-5 5.8V1.8zm-83 0v2.9l-2.5-2.9h2.5zM61.2 20l.1.1s3.6-3.9 9.2-7.6C75.8 9 83.8 4.9 92.8 5c8.9 0 17.1 4.2 22.3 7.7 5.6 3.7 9.3 7.5 9.4 7.6l-3.9 4.5c-6.9.9-11.9 6.1-18.6 5-3.4-.6-3.5-2.5-4.5-4.5-.7-1.5-1.9-1.3-3.5-1.9-1.4-.6-2.3-1.7-5.2-1.1-2.5.6-2.8 4.5-6 4.3-1.7-.1-1.8-2.5-4.2-5.5-6.3-7.6-12.2-6.5-16.2.5l30.3 35.9L61.2 20zm75.9-14.5V1.8h3.2l-3.2 3.7z"/><path class="arst1" d="M88.7 70.9l4.1-6.5 4 6.5-4 6.5z"/><path class="arst2" d="M65.5 32.3c.5.6.9 1.3.8 2.1-.1.6-.9 1.6-.3 1.8.7-.9 1.5-1.9 2.2-2.8-.6-.2-5.4-5.8-5.4-6.5-1.1.6-2.1 1.2-3.2 1.7.2.7 1.3 0 1.9 0 .8.1 1.4.6 2 1.2-1.7 1.4-5.9 5-6.4 5.1-.2 0-1.1-.6-1.1-.1 0 .3.9 1 1 1.2.7.9 1.5 1.8 2.2 2.7.6-.3-.1-.7.2-1.2.3-.4 4.9-4.3 6.1-5.2zM60.2 25.3c.4-.1.6.4 1-.1-.8-1-1.6-1.9-2.4-2.9-.4-.4-.8-.9-.7 0 .1.6-6.1 5.7-6.5 5.8-.5.2-.8-.4-1.1.1.7.9 1.5 1.7 2.2 2.6.2.3.5.6.7.9.3.3.2-.7.2-.6-.1-.5.5-.9.9-1.2 1.5-1.3 5.3-4.6 5.7-4.6zM51.4 24.4c-1.8.5-3.7-.2-4.2-2s.6-3.8 2.1-4.8c1.4-1 3.6-1 4.4.8.3.8.2 1.7-.1 2.5-.2.5-.6 1 .1 1.3.9-1.1 1.7-2.2 2.6-3.3-1.1-.6-1.5-1.7-2.3-2.6-.9-1.1-2.1-2.1-3.5-2.3-2.9-.4-5.6 2.6-5.8 5.2-.1 1.5.4 2.8 1.2 4 .8 1 1.9 1.6 2.4 2.8.3.1 2.7-1 3.3-1.3-.1-.1-.1-.2-.2-.3-.7.2 0 0 0 0zM90.7 60.8c-1.2-.8-4-4.7-4.6-5.3-.1-.1-.2-.3-.3-.4 0 0-.3.2-.2.2-.2.1.1.6-.1.9-.8 1.2-5.8 5-6 5.2-.6.4-1.2-.2-1.5.3.7.9 2.8 3.5 3 3.6.5.1.1-.8.2-1 .1-.4 2.6-2.4 3.5-3.2.3-.3.7.4.9.7.3.5.5 1 .3 1.6-.1.4-.7.9-.2 1.2.6-.7 2.4-2.8 2.6-3 .3-.3-.6 0-.5-.1-.4.2-.7.2-1.1 0-.1-.1-1.1-1.1-1-1.2.4-.4 1-1 1.5-1.1.9-.2 1.6 1.5 1.7 2.1.1.6.1 1.2-.1 1.8-.1.4-.5.7 0 .9.7-1 1.4-1.9 2.1-2.9.1-.2-.1-.3-.2-.3-.1-.1.2 0 0 0zM80.5 56.6c2.2-1.9 2.5-5.1.8-7.3-1.9-2.5-5.4-3.1-7.8-1.1-2.2 1.9-2.5 5-.8 7.3 2 2.7 5.2 3 7.8 1.1 1.2-.9-.1.1 0 0zm-.5-4.7c-.6 1.5-2.2 3.1-3.7 3.7-1.8.7-3.1-.8-2.4-2.6.7-1.5 2.2-3.1 3.7-3.7 1.9-.7 3.1.9 2.4 2.6-.4.9.1-.2 0 0zM74.1 42c.5.1.9.5 1.3 0-.7-.9-1.5-1.8-2.2-2.6-.6.3 0 .5-.2 1-.2.4-2.6.8-3.2.9.2-.6.9-2.6 1.2-2.8.5-.4.9.4 1.3-.1l-2.7-3.3c-.3-.4-.6-1-1-.7 0 0 0 1.5-.1 1.7-.1.2-.9 3.6-1.9 4.5-.5.4-2.2 1.9-2.7 2.1-.5.2-.8-.6-1.2 0 .8 1 1.7 2 2.5 3 .1.1.6.9.8.9.5.1.1-.9.1-1.1.2-.4 2.5-2.7 3.5-2.9 1.2-.2 3-.7 4.5-.6.3.1-.4 0 0 0z"/><path class="arst4" d="M67.8 22.9c-4-.2-2.4-4 .4-4.8 2.6-.8 8.1 1.7 9.8 3.4-2.8.9-6.4.7-9.4.9-.2-3.2-1-2.1-.8.5zM77.3 35.4c-8.6-.1-2.8-13.3.1-12.5 3.4 1.1 3 12.6-.1 12.5zM83.4 31.1c-.8 2.5-2.4 3-2.2-.1.2-3.5 2.5-2.7 4.9-4 2-1.1 3.1-5.2 6.6-2.8 1.6 1.1 3.4.2 3.9 1.8 0-.1-4.5 10.3-2 10.3-5 0-2.8-5.9-.9-9.9-1.8.9-4.8 6.7-2.4 7.6-1.3 1.7-5.2 3.9-7.2 2.3-1.5-1.1-.7-3.2-.7-5.2zM87.5 40.7c-3.5 1-8.1-1.2-2.5-2.3 3.5-.7 7.2.7 2.5 2.3.1 0-.1 0 0 0zM91.9 40.6c-.7-1.7.6-3.6 2.7-2.2 1.8 1.2-.9 3.1-2.7 2.2zM88.9 45.2c-2.4-.7-10.5-.6-5.2-2.8 1.7-.6 10.2.2 5.2 2.8zM99.4 48.5c-1.4-1.2-2.9-1.3-4.2 0-1.8-3.3-8.3-2.2-11.4-2.7 1.6 4.1 14.8 4.9 15.6 2.7z"/><g><path class="arst4" d="M97.5 51c-3.2-.1-6.7-.6-9.6.1 1.9.5 6.4 1.8 2.2 2.9 1.5 2.2 4 2 5.6.1-.7-.3-1-.7-1.6-1.1 1.6-.3 3.2-1.2 3.4-2z"/></g><g><path class="arst4" d="M101.1 47.1c-5.3-3.1-4-5.4.4-7.6 2.3-1.1 7.3-5.2 9.4-3.9-3.3 3.9-6.6 7.7-9.8 11.5z"/></g><g><path class="arst5" d="M97.3 39.8c-4.5-4.6 6.7-4.2 8.5-5.8 1.3.4 10.8-8.3 13.1-7.7-1.7 1.9-5.2 8.1-7.8 8.1-2 0-4-.3-5.5 1.1-2.2 2.1-5.9 3.1-8.3 4.3z"/></g><g><path class="arst6" d="M98.8 34.2c-2.5 1.3-4.8-3.9-.5-3.4 2.8.3 5.7-.2 8.3.2-2 2.3-4.7 3.6-7.8 3.2z"/></g><g><path class="arst2" d="M111.4 52.5c.2.6.3 1.3.2 2-.1.9-1 2.9-2.2 2.3-1.2-.6-2.2-1.7-3.2-2.6.8-.9 1.5-1.7 2.9-1.3.4.1.7 0 .3-.3-.4-.2-3.1-2-3.3-1.8-.3.3.5.9.2 1.5-.2.4-.6.8-.9 1.2-.7-.6-1.9-1.3-1.1-2.3.5-.7 1.2-1.2 2.1-1.3.6-.1 1.8.4 2-.2-1.1-.5-2.2-1-3.3-1.6.2.8-3.3 4.5-4.1 5.5-.1.1-.7.6-.7.8 0 .4.6.1.7.1.5-.2 6.8 5.1 7 5.5.1.3-.2.6 0 .7 0 0 .2.2.3.2.4-.5 4.5-6 5.4-6.2-.8-1.2-1.6-2.4-2.4-3.7-.6.3 0 1 .1 1.5zM105.2 59.2c-2.1-1.3-5.6 1.3-6.1 1.5-1 .5-1.8-.5-1.3-1.5.5-.8 1.4-1.2 2.3-1.3.3 0 1.3.2 1.5 0 .1-.2.2-.2 0-.3-.9-.6-1.7-1.2-2.6-1.7-.2 1.1-1.4 1.7-2.1 2.4-.8.9-1.5 1.9-1.5 3.2 0 1.1.7 2.1 1.7 2.7 1.1.6 2.3.1 3.3-.5.6-.4 1.3-.9 1.9-1.2 1-.5 2.3-.1 2 1.3-.3 1.1-1.4 2.1-2.4 2.3-.6.2-1.3.1-1.9-.1-.4-.1-1-.7-1.2-.1 1.2.8 2.3 1.7 3.5 2.5.1-.8.5-1.1 1.1-1.6.7-.6 1.4-1.3 2-2.1 1.2-1.7 1.6-4.1-.2-5.5zM105.2 59.2c1 .6-.6-.5 0 0zM134.5 21.9zM141.9 19.6c-.7.7-8.4-2.3-9-2.8-.3-.1-.3-1.3-.7-.8l-1.2 1.5c-.4.5-.8 1-1.3 1.5-.3.3-.5.5 0 .7.8-.4 5.4 7.3 5 8.5-.7.4-6.9-5.1-7.1-5.4-.1-.1.3-1-.2-.9-.2 0-.7.9-.9 1.1-.3.4-.6.7-.9 1.1.3.5.5 0 1 0 .4.1 1.8 1.3 2.2 1.7-.7 0-2.7.1-2.9.1-.9.1-.4-.7-1-.9-.8.9-1.5 1.8-2.3 2.8-.4.5-.9 1.1-1.3 1.6-.1.1 0 0 0 .1.3.3.1.2.6 0s6.6 4.9 6.8 5.2c.4.4-.2 1 .4 1.2.6-.7 1.2-1.5 1.8-2.2.1-.1.1-.1 0-.2-.4-.4-.5.2-1 .2-.5-.1-4.4-3.4-5.9-4.6 1.8-.1 7.3-.3 8.2-.3.3 0 1.1.9 1.1 1.2-.1.4-.5.6.1.8.5-.6 1-1.1 1.5-1.7l.2-.3c.1-.1.1-.1.2-.3l.2-.2c.4-.5 1.8-2 1.6-2.1-.5-.4-.7.5-1.3-.1-.3-.2-1.2-1.8-1.4-2.2-.3-.4.6-.9 1-1.1.8-.5 3.2-1.2 3.5.3 0 .3-.3.5-.1.7 0 0 .2.2.3.2.2-.2 2.4-2.8 3.3-4-.3-.2-.4-.3-.5-.4zm-7.4 2.2c.1 0 .2-.1 0 0-.3.2-.7.5-1 .8-.5-.9-1-1.8-1.6-2.7 1.2.5 2.4 1 3.5 1.5-.2.1-.5.2-.9.4zM124.8 33c-2.4-2-5.6-1.4-7.6.8-1.9 2.3-1.7 5.7.6 7.6 2.3 1.9 5.7 1.4 7.6-.8 1.9-2.3 1.8-5.7-.6-7.6zm-.3 6.6s0 .1 0 0c-1.3 1.3-3.4.1-4.5-.7-1.1-.8-3.1-2.6-1.9-4.1 1.1-1.3 3.1-.2 4.2.5 1.2.8 3.4 2.6 2.3 4.2l-.1.1z"/><path class="arst2" d="M124.8 33c1.2 1-.3-.2 0 0zM124.5 39.7c0-.1 0-.1 0 0l.1-.1c-.1 0-.1.1-.1.1zM118.2 42.1c.1.1.3.3 0 0-2.9-2.2-6.3-1.6-8.5 1.1l-3 3.6c.4.5.8-.1 1.3.2.4.2 6.2 5.1 6.3 5.4.2.5-.3.5.1.9.2.1 4.5-5.2 4.9-6.2.9-1.8.3-3.7-1.1-5zm-1.3 6.8c-.2.3 0 .1-.7.7-.3.3-6.4-4.7-6.2-4.9.8-.9 2.6-1.6 3.6-1.3 2.2.5 5.2 3.2 3.3 5.5z"/></g></g></svg><svg id="logo--tablet" viewBox="42.2 0 101.7 84" width="101.7" height="84" x="2633"><style>.asst0{fill:#23a9e1}.asst1{fill:#fff}.asst2{fill:#491213}.asst3{fill:#dc6243}.asst4{fill:#f49774}.asst5{fill:#f4b1a4}</style><g id="asLayer_2"><path class="asst0" d="M43.2.7l49.6 58.4 49.3-58z"/><path class="asst1" d="M122 17.3c-5.1 0-10.1.1-15.2.1 6-6.9 8.7-6.2 15.2-.1zM80.8 22.7h26.7c-2-1.2-6.7-7.1-9.3-4.9-.2.2-7.5-8.9-12.3-4.5-4.2 3.8-6.1-.5-10.9 2.5-5.3 3.6 3.2 5.7 5.8 6.9z"/><path class="asst2" d="M93.1 0H42.2v22.5L92.8 84l.3-.4 50.7-60.4V0H93.1zm0 57.1l-.3.4L45.9 1.8h94.4L93.1 57.1z"/><path class="asst2" d="M92.8 57.5l.3-.4 27.6-32.3c-6.9.9-11.9 6.1-18.6 5-3.4-.6-3.5-2.5-4.5-4.5-.7-1.5-1.9-1.3-3.5-1.9-1.4-.6-2.3-1.7-5.2-1.1-2.5.6-2.8 4.5-6 4.3-1.7-.1-1.8-2.5-4.2-5.5-6.3-7.6-12.2-6.5-16.2.5l30.3 35.9z"/><path class="asst0" d="M88.7 70.9l4.1-6.5 4 6.5-4 6.5z"/><path class="asst1" d="M65.5 32.3c.5.6.9 1.3.8 2.1-.1.6-.9 1.6-.3 1.8.7-.9 1.5-1.9 2.2-2.8-.6-.2-5.4-5.8-5.4-6.5-1.1.6-2.1 1.2-3.2 1.7.2.7 1.3 0 1.9 0 .8.1 1.4.6 2 1.2-1.7 1.4-5.9 5-6.4 5.1-.2 0-1.1-.6-1.1-.1 0 .3.9 1 1 1.2.7.9 1.5 1.8 2.2 2.7.6-.3-.1-.7.2-1.2.3-.4 4.9-4.3 6.1-5.2zM60.2 25.3c.4-.1.6.4 1-.1-.8-1-1.6-1.9-2.4-2.9-.4-.4-.8-.9-.7 0 .1.6-6.1 5.7-6.5 5.8-.5.2-.8-.4-1.1.1.7.9 1.5 1.7 2.2 2.6.2.3.5.6.7.9.3.3.2-.7.2-.6-.1-.5.5-.9.9-1.2 1.5-1.3 5.3-4.6 5.7-4.6zM51.4 24.4c-1.8.5-3.7-.2-4.2-2s.6-3.8 2.1-4.8c1.4-1 3.6-1 4.4.8.3.8.2 1.7-.1 2.5-.2.5-.6 1 .1 1.3.9-1.1 1.7-2.2 2.6-3.3-1.1-.6-1.5-1.7-2.3-2.6-.9-1.1-2.1-2.1-3.5-2.3-2.9-.4-5.6 2.6-5.8 5.2-.1 1.5.4 2.8 1.2 4 .8 1 1.9 1.6 2.4 2.8.3.1 2.7-1 3.3-1.3-.1-.1-.1-.2-.2-.3-.7.2 0 0 0 0zM90.7 60.8c-1.2-.8-4-4.7-4.6-5.3-.1-.1-.2-.3-.3-.4 0 0-.3.2-.2.2-.2.1.1.6-.1.9-.8 1.2-5.8 5-6 5.2-.6.4-1.2-.2-1.5.3.7.9 2.8 3.5 3 3.6.5.1.1-.8.2-1 .1-.4 2.6-2.4 3.5-3.2.3-.3.7.4.9.7.3.5.5 1 .3 1.6-.1.4-.7.9-.2 1.2.6-.7 2.4-2.8 2.6-3 .3-.3-.6 0-.5-.1-.4.2-.7.2-1.1 0-.1-.1-1.1-1.1-1-1.2.4-.4 1-1 1.5-1.1.9-.2 1.6 1.5 1.7 2.1.1.6.1 1.2-.1 1.8-.1.4-.5.7 0 .9.7-1 1.4-1.9 2.1-2.9.1-.2-.1-.3-.2-.3-.1-.1.2 0 0 0zM80.5 56.6c2.2-1.9 2.5-5.1.8-7.3-1.9-2.5-5.4-3.1-7.8-1.1-2.2 1.9-2.5 5-.8 7.3 2 2.7 5.2 3 7.8 1.1 1.2-.9-.1.1 0 0zm-.5-4.7c-.6 1.5-2.2 3.1-3.7 3.7-1.8.7-3.1-.8-2.4-2.6.7-1.5 2.2-3.1 3.7-3.7 1.9-.7 3.1.9 2.4 2.6-.4.9.1-.2 0 0zM74.1 42c.5.1.9.5 1.3 0-.7-.9-1.5-1.8-2.2-2.6-.6.3 0 .5-.2 1-.2.4-2.6.8-3.2.9.2-.6.9-2.6 1.2-2.8.5-.4.9.4 1.3-.1l-2.7-3.3c-.3-.4-.6-1-1-.7 0 0 0 1.5-.1 1.7-.1.2-.9 3.6-1.9 4.5-.5.4-2.2 1.9-2.7 2.1-.5.2-.8-.6-1.2 0 .8 1 1.7 2 2.5 3 .1.1.6.9.8.9.5.1.1-.9.1-1.1.2-.4 2.5-2.7 3.5-2.9 1.2-.2 3-.7 4.5-.6.3.1-.4 0 0 0z"/><path class="asst3" d="M67.8 22.9c-4-.2-2.4-4 .4-4.8 2.6-.8 8.1 1.7 9.8 3.4-2.8.9-6.4.7-9.4.9-.2-3.2-1-2.1-.8.5zM68.8 27.7c-2-1.6-1.4-5.3 1.8-4.1 4 2.1-.9 3.2-1.8 4.1zM77.3 35.4c-8.6-.1-2.8-13.3.1-12.5 3.4 1.1 3 12.6-.1 12.5zM83.4 31.1c-.8 2.5-2.4 3-2.2-.1.2-3.5 2.5-2.7 4.9-4 2-1.1 3.1-5.2 6.6-2.8 1.6 1.1 3.4.2 3.9 1.8 0-.1-4.5 10.3-2 10.3-5 0-2.8-5.9-.9-9.9-1.8.9-4.8 6.7-2.4 7.6-1.3 1.7-5.2 3.9-7.2 2.3-1.5-1.1-.7-3.2-.7-5.2zM87.5 40.7c-3.5 1-8.1-1.2-2.5-2.3 3.5-.7 7.2.7 2.5 2.3.1 0-.1 0 0 0zM91.9 40.6c-.7-1.7.6-3.6 2.7-2.2 1.8 1.2-.9 3.1-2.7 2.2zM88.9 45.2c-2.4-.7-10.5-.6-5.2-2.8 1.7-.6 10.2.2 5.2 2.8zM92.1 44.9c0-1-.5-2.7 1.4-1.9 2.2.8-1.4 2.6-1.4 1.9 0 0 0-.2 0 0zM99.4 48.5c-1.4-1.2-2.9-1.3-4.2 0-1.8-3.3-8.3-2.2-11.4-2.7 1.6 4.1 14.8 4.9 15.6 2.7z"/><g><path class="asst3" d="M97.5 51c-3.2-.1-6.7-.6-9.6.1 1.9.5 6.4 1.8 2.2 2.9 1.5 2.2 4 2 5.6.1-.7-.3-1-.7-1.6-1.1 1.6-.3 3.2-1.2 3.4-2z"/></g><g><path class="asst3" d="M101.1 47.1c-5.3-3.1-4-5.4.4-7.6 2.3-1.1 7.3-5.2 9.4-3.9-3.3 3.9-6.6 7.7-9.8 11.5z"/></g><g><path class="asst4" d="M97.3 39.8c-4.5-4.6 6.7-4.2 8.5-5.8 1.3.4 10.8-8.3 13.1-7.7-1.7 1.9-5.2 8.1-7.8 8.1-2 0-4-.3-5.5 1.1-2.2 2.1-5.9 3.1-8.3 4.3z"/></g><g><path class="asst5" d="M98.8 34.2c-2.5 1.3-4.8-3.9-.5-3.4 2.8.3 5.7-.2 8.3.2-2 2.3-4.7 3.6-7.8 3.2z"/></g><g><path class="asst1" d="M111.4 52.5c.2.6.3 1.3.2 2-.1.9-1 2.9-2.2 2.3-1.2-.6-2.2-1.7-3.2-2.6.8-.9 1.5-1.7 2.9-1.3.4.1.7 0 .3-.3-.4-.2-3.1-2-3.3-1.8-.3.3.5.9.2 1.5-.2.4-.6.8-.9 1.2-.7-.6-1.9-1.3-1.1-2.3.5-.7 1.2-1.2 2.1-1.3.6-.1 1.8.4 2-.2-1.1-.5-2.2-1-3.3-1.6.2.8-3.3 4.5-4.1 5.5-.1.1-.7.6-.7.8 0 .4.6.1.7.1.5-.2 6.8 5.1 7 5.5.1.3-.2.6 0 .7 0 0 .2.2.3.2.4-.5 4.5-6 5.4-6.2-.8-1.2-1.6-2.4-2.4-3.7-.6.3 0 1 .1 1.5zM105.2 59.2c-2.1-1.3-5.6 1.3-6.1 1.5-1 .5-1.8-.5-1.3-1.5.5-.8 1.4-1.2 2.3-1.3.3 0 1.3.2 1.5 0 .1-.2.2-.2 0-.3-.9-.6-1.7-1.2-2.6-1.7-.2 1.1-1.4 1.7-2.1 2.4-.8.9-1.5 1.9-1.5 3.2 0 1.1.7 2.1 1.7 2.7 1.1.6 2.3.1 3.3-.5.6-.4 1.3-.9 1.9-1.2 1-.5 2.3-.1 2 1.3-.3 1.1-1.4 2.1-2.4 2.3-.6.2-1.3.1-1.9-.1-.4-.1-1-.7-1.2-.1 1.2.8 2.3 1.7 3.5 2.5.1-.8.5-1.1 1.1-1.6.7-.6 1.4-1.3 2-2.1 1.2-1.7 1.6-4.1-.2-5.5zM105.2 59.2c1 .6-.6-.5 0 0zM134.5 21.9zM141.9 19.6c-.7.7-8.4-2.3-9-2.8-.3-.1-.3-1.3-.7-.8l-1.2 1.5c-.4.5-.8 1-1.3 1.5-.3.3-.5.5 0 .7.8-.4 5.4 7.3 5 8.5-.7.4-6.9-5.1-7.1-5.4-.1-.1.3-1-.2-.9-.2 0-.7.9-.9 1.1-.3.4-.6.7-.9 1.1.3.5.5 0 1 0 .4.1 1.8 1.3 2.2 1.7-.7 0-2.7.1-2.9.1-.9.1-.4-.7-1-.9-.8.9-1.5 1.8-2.3 2.8-.4.5-.9 1.1-1.3 1.6-.1.1 0 0 0 .1.3.3.1.2.6 0s6.6 4.9 6.8 5.2c.4.4-.2 1 .4 1.2.6-.7 1.2-1.5 1.8-2.2.1-.1.1-.1 0-.2-.4-.4-.5.2-1 .2-.5-.1-4.4-3.4-5.9-4.6 1.8-.1 7.3-.3 8.2-.3.3 0 1.1.9 1.1 1.2-.1.4-.5.6.1.8.5-.6 1-1.1 1.5-1.7l.2-.3c.1-.1.1-.1.2-.3l.2-.2c.4-.5 1.8-2 1.6-2.1-.5-.4-.7.5-1.3-.1-.3-.2-1.2-1.8-1.4-2.2-.3-.4.6-.9 1-1.1.8-.5 3.2-1.2 3.5.3 0 .3-.3.5-.1.7 0 0 .2.2.3.2.2-.2 2.4-2.8 3.3-4-.3-.2-.4-.3-.5-.4zm-7.4 2.2c.1 0 .2-.1 0 0-.3.2-.7.5-1 .8-.5-.9-1-1.8-1.6-2.7 1.2.5 2.4 1 3.5 1.5-.2.1-.5.2-.9.4zM124.8 33c-2.4-2-5.6-1.4-7.6.8-1.9 2.3-1.7 5.7.6 7.6 2.3 1.9 5.7 1.4 7.6-.8 1.9-2.3 1.8-5.7-.6-7.6zm-.3 6.6s0 .1 0 0c-1.3 1.3-3.4.1-4.5-.7-1.1-.8-3.1-2.6-1.9-4.1 1.1-1.3 3.1-.2 4.2.5 1.2.8 3.4 2.6 2.3 4.2l-.1.1z"/><path class="asst1" d="M124.8 33c1.2 1-.3-.2 0 0zM124.5 39.7c0-.1 0-.1 0 0l.1-.1c-.1 0-.1.1-.1.1zM118.2 42.1c.1.1.3.3 0 0-2.9-2.2-6.3-1.6-8.5 1.1l-3 3.6c.4.5.8-.1 1.3.2.4.2 6.2 5.1 6.3 5.4.2.5-.3.5.1.9.2.1 4.5-5.2 4.9-6.2.9-1.8.3-3.7-1.1-5zm-1.3 6.8c-.2.3 0 .1-.7.7-.3.3-6.4-4.7-6.2-4.9.8-.9 2.6-1.6 3.6-1.3 2.2.5 5.2 3.2 3.3 5.5z"/></g></g></svg><svg viewBox="0 2 16 12" width="16" height="12" id="mail" x="2735"><path d="M8 10c-.3 0-.5-.1-1-.3L0 6v7c0 .5.5 1 1 1h14c.5 0 1-.5 1-1V6L9 9.7c-.5.2-.7.3-1 .3zm7-8H1c-.5 0-1 .5-1 1v.8L8 8l8-4.2V3c0-.5-.5-1-1-1z"/></svg><svg id="pause" viewBox="0 0 18.1 20.3" width="18.1" height="20.3" x="2751"><style>.aust0{fill:#fff}</style><path class="aust0" d="M0 0h6.8v20.3H0zM11.3 0h6.8v20.3h-6.8z"/></svg><svg id="pause_gray" viewBox="0 0 18.1 20.3" width="18.1" height="20.3" x="2770"><style>.avst0{fill:#5c6870}</style><path class="avst0" d="M0 0h6.8v20.3H0zM11.3 0h6.8v20.3h-6.8z"/></svg><svg id="play" viewBox="0 0 18 20.3" width="18" height="20.3" x="2789"><style>.awst0{fill:#fff}</style><path class="awst0" d="M0 20.3V0l18 10.1z"/></svg><svg id="play_gray" viewBox="0 0 18 20.3" width="18" height="20.3" x="2807"><style>.axst0{fill:#5c6870}</style><path class="axst0" d="M0 20.3V0l18 10.1z"/></svg><svg id="tel" viewBox="0 0 18 18" width="18" height="18" x="2825"><style>.ayst0{fill:#010101}</style><g id="ayPage-1"><g id="ayIcons-Communication" transform="translate(-85 -126)"><g id="ayphone" transform="translate(85 126)"><path id="ayShape" class="ayst0" d="M3.6 7.8c1.4 2.8 3.8 5.1 6.6 6.6l2.2-2.2c.3-.3.7-.4 1-.2 1.1.4 2.3.6 3.6.6.6 0 1 .4 1 1V17c0 .6-.4 1-1 1C7.6 18 0 10.4 0 1c0-.6.4-1 1-1h3.5c.6 0 1 .4 1 1 0 1.2.2 2.4.6 3.6.1.3 0 .7-.2 1L3.6 7.8z"/></g></g></g></svg><svg id="thumbup" viewBox="0 0 22 20" width="22" height="20" x="2843"><style>.azst0{fill:#fff}</style><g id="azPage-1"><g id="azCore" transform="translate(-295 -464)"><g id="azthumb-up" transform="translate(295 464)"><path class="azst0" d="M12.4 3.6l-.6 2.9-.6 2.5h8.7v2.1L17 18H8V8l4.4-4.4M2 10v8-8M13.2 0L6.6 6.6c-.4.3-.6.8-.6 1.4v10c0 1.1.9 2 2 2h9c.8 0 1.5-.5 1.8-1.2l3-7.1c.1-.2.1-.5.1-.7V9h.1c0-1.1-.9-2-2-2h-6.3l1-4.6v-.3c0-.4-.2-.8-.4-1.1l-1.1-1zM4 8H0v12h4V8zm18 1z" id="azShape"/></g></g></g></svg><svg id="thumbup_gray" viewBox="0 0 22 20" width="22" height="20" x="2865"><style>.bast0{fill:#a9a9a9}</style><g id="baPage-1"><g id="baCore" transform="translate(-295 -464)"><g id="bathumb-up" transform="translate(295 464)"><path class="bast0" d="M12.4 3.6l-.6 2.9-.6 2.5h8.7v2.1L17 18H8V8l4.4-4.4M2 10v8-8M13.2 0L6.6 6.6c-.4.3-.6.8-.6 1.4v10c0 1.1.9 2 2 2h9c.8 0 1.5-.5 1.8-1.2l3-7.1c.1-.2.1-.5.1-.7V9h.1c0-1.1-.9-2-2-2h-6.3l1-4.6v-.3c0-.4-.2-.8-.4-1.1l-1.1-1zM4 8H0v12h4V8zm18 1z" id="baShape"/></g></g></g></svg><svg viewBox="0 0 23 16.2" width="23" height="16.2" id="tick" x="2887"><path d="M22.8 1.3L21.7.2c-.3-.3-.9-.3-1.2 0L8.7 12.1 2.5 5.9c-.3-.3-.9-.3-1.2 0L.2 7c-.3.3-.3.9 0 1.2L8.1 16c.2.2.4.2.6.2.2 0 .4-.1.6-.2L22.8 2.5c.3-.3.3-.9 0-1.2z"/></svg><svg id="twitter" viewBox="0 0 17.5 14.7" width="17.5" height="14.7" x="2910"><style>.bcst0{fill:#fff}</style><path class="bcst0" d="M11.3.2C13-.3 14.4.4 15 1.3c.7-.2 1.4-.5 2.1-.7 0 .8-.5 1.5-.9 1.7.7.2 1.3-.5 1.3-.5-.2 1-1 1.7-1.6 2-.2 6.6-3.3 11-10.4 10.8H5c-.4 0-4.3-.4-5-1.8 2.3.2 4-.4 4.8-1.1-1-.3-2.8-.5-3.1-2.9.4.1.6.2 1.3.1C1.8 8.1.4 7.4.5 5.2c.3.3 1.1.5 1.4.5-.7-.2-2-3.3-.9-4.8 1.9 1.8 3.8 3.5 7.4 3.7C8.5 2.3 9.5.8 11.3.2z" id="bcW6EeEF_1_"/></svg><svg id="youtube" viewBox="0 0 20 14" width="20" height="14" x="2928"><style>.bdst0{fill:#fff}</style><path class="bdst0" d="M17.1 0H2.8C1.3 0 0 1.3 0 2.8v8.3C0 12.7 1.3 14 2.8 14h14.3c1.6 0 2.8-1.3 2.8-2.8V2.8C20 1.3 18.7 0 17.1 0zM7 10.4V3.6L13.8 7 7 10.4z"/></svg></svg>